<?xml version="1.0" encoding="UTF-8" standalone="no"?>
<!DOCTYPE svg PUBLIC "-//W3C//DTD SVG 1.1//EN"
 "http://www.w3.org/Graphics/SVG/1.1/DTD/svg11.dtd">
<!-- Generated by graphviz version 2.39.20160823.1445 (20160823.1445)
 -->
<!-- Title: Workflow Pages: 1 -->
<svg width="1002pt" height="550pt"
 viewBox="0.00 0.00 1001.85 550.00" xmlns="http://www.w3.org/2000/svg" xmlns:xlink="http://www.w3.org/1999/xlink">
<g id="graph0" class="graph" transform="scale(1 1) rotate(0) translate(4 546)">
<title>Workflow</title>
<polygon fill="white" stroke="transparent" points="-4,4 -4,-546 997.848,-546 997.848,4 -4,4"/>
<text text-anchor="middle" x="496.924" y="-523.6" font-family="Courier,monospace" font-size="18.00">topic_modeling</text>
<g id="clust1" class="cluster">
<title>cluster_workflow_box_outer</title>
<polygon fill="none" stroke="black" stroke-width="2" points="8,-62 8,-454 949,-454 949,-62 8,-62"/>
</g>
<g id="clust2" class="cluster">
<title>cluster_workflow_box_inner</title>
<polygon fill="none" stroke="white" stroke-width="2" points="16,-70 16,-446 941,-446 941,-70 16,-70"/>
</g>
<g id="clust3" class="cluster">
<title>cluster_input_ports_group_outer</title>
<polygon fill="none" stroke="white" points="806,-462 806,-508 980,-508 980,-462 806,-462"/>
</g>
<g id="clust4" class="cluster">
<title>cluster_input_ports_group_inner</title>
<polygon fill="none" stroke="white" points="814,-470 814,-500 972,-500 972,-470 814,-470"/>
</g>
<g id="clust5" class="cluster">
<title>cluster_output_ports_group_outer</title>
<polygon fill="none" stroke="white" points="424,-8 424,-54 502,-54 502,-8 424,-8"/>
</g>
<g id="clust6" class="cluster">
<title>cluster_output_ports_group_inner</title>
<polygon fill="none" stroke="white" points="432,-16 432,-46 494,-46 494,-16 432,-16"/>
</g>
<!-- initialize_run -->
<g id="node1" class="node">
<title>initialize_run</title>
<polygon fill="#ccffcc" stroke="black" points="23.959,-393.5 23.959,-437.5 544.041,-437.5 544.041,-393.5 23.959,-393.5"/>
<text text-anchor="middle" x="284" y="-422.3" font-family="Courier,monospace" font-size="14.00">initialize_run</text>
<polyline fill="none" stroke="black" points="23.959,-415.5 544.041,-415.5 "/>
<text text-anchor="middle" x="284" y="-400.3" font-family="Courier,monospace" font-size="14.00">Using Logging to track events that happen when software runs</text>
</g>
<!-- run_log -->
<g id="node4" class="node">
<title>run_log</title>
<path fill="#ffffcc" stroke="black" d="M287.469,-312.5C287.469,-312.5 370.531,-312.5 370.531,-312.5 376.531,-312.5 382.531,-318.5 382.531,-324.5 382.531,-324.5 382.531,-344.5 382.531,-344.5 382.531,-350.5 376.531,-356.5 370.531,-356.5 370.531,-356.5 287.469,-356.5 287.469,-356.5 281.469,-356.5 275.469,-350.5 275.469,-344.5 275.469,-344.5 275.469,-324.5 275.469,-324.5 275.469,-318.5 281.469,-312.5 287.469,-312.5"/>
<text text-anchor="middle" x="329" y="-341.3" font-family="Helvetica,sans-Serif" font-size="14.00">run_log</text>
<polyline fill="none" stroke="black" points="275.469,-334.5 382.531,-334.5 "/>
<text text-anchor="middle" x="329" y="-319.3" font-family="Helvetica,sans-Serif" font-size="14.00">file:run_log.log</text>
</g>
<!-- initialize_run&#45;&gt;run_log -->
<g id="edge1" class="edge">
<title>initialize_run&#45;&gt;run_log</title>
<path fill="none" stroke="black" d="M296.296,-393.366C301.059,-384.794 306.594,-374.83 311.743,-365.563"/>
<polygon fill="black" stroke="black" points="314.921,-367.048 316.718,-356.607 308.802,-363.649 314.921,-367.048"/>
</g>
<!-- Train_LDA_Model -->
<g id="node2" class="node">
<title>Train_LDA_Model</title>
<polygon fill="#ccffcc" stroke="black" points="532.779,-159.5 532.779,-203.5 809.221,-203.5 809.221,-159.5 532.779,-159.5"/>
<text text-anchor="middle" x="671" y="-188.3" font-family="Courier,monospace" font-size="14.00">Train_LDA_Model</text>
<polyline fill="none" stroke="black" points="532.779,-181.5 809.221,-181.5 "/>
<text text-anchor="middle" x="671" y="-166.3" font-family="Courier,monospace" font-size="14.00">using Gensim.LDA to do training</text>
</g>
<!-- LDA_model -->
<g id="node5" class="node">
<title>LDA_model</title>
<path fill="#ffffcc" stroke="black" d="M537.197,-78.5C537.197,-78.5 642.803,-78.5 642.803,-78.5 648.803,-78.5 654.803,-84.5 654.803,-90.5 654.803,-90.5 654.803,-110.5 654.803,-110.5 654.803,-116.5 648.803,-122.5 642.803,-122.5 642.803,-122.5 537.197,-122.5 537.197,-122.5 531.197,-122.5 525.197,-116.5 525.197,-110.5 525.197,-110.5 525.197,-90.5 525.197,-90.5 525.197,-84.5 531.197,-78.5 537.197,-78.5"/>
<text text-anchor="middle" x="590" y="-107.3" font-family="Helvetica,sans-Serif" font-size="14.00">LDA_model</text>
<polyline fill="none" stroke="black" points="525.197,-100.5 654.803,-100.5 "/>
<text text-anchor="middle" x="590" y="-85.3" font-family="Helvetica,sans-Serif" font-size="14.00">file:LDA_model.txt</text>
</g>
<!-- Train_LDA_Model&#45;&gt;LDA_model -->
<g id="edge7" class="edge">
<title>Train_LDA_Model&#45;&gt;LDA_model</title>
<path fill="none" stroke="black" d="M648.866,-159.366C639.759,-150.259 629.079,-139.579 619.335,-129.835"/>
<polygon fill="black" stroke="black" points="621.653,-127.203 612.107,-122.607 616.703,-132.153 621.653,-127.203"/>
</g>
<!-- ConstructCorpus -->
<g id="node3" class="node">
<title>ConstructCorpus</title>
<polygon fill="#ccffcc" stroke="black" points="444.564,-312.5 444.564,-356.5 897.436,-356.5 897.436,-312.5 444.564,-312.5"/>
<text text-anchor="middle" x="671" y="-341.3" font-family="Courier,monospace" font-size="14.00">ConstructCorpus</text>
<polyline fill="none" stroke="black" points="444.564,-334.5 897.436,-334.5 "/>
<text text-anchor="middle" x="671" y="-319.3" font-family="Courier,monospace" font-size="14.00">Using Gensim to construct corpus to train LDA models</text>
</g>
<!-- Corpus -->
<g id="node7" class="node">
<title>Corpus</title>
<path fill="#ffffcc" stroke="black" d="M602.631,-276C602.631,-276 565.369,-276 565.369,-276 559.369,-276 553.369,-270 553.369,-264 553.369,-264 553.369,-252 553.369,-252 553.369,-246 559.369,-240 565.369,-240 565.369,-240 602.631,-240 602.631,-240 608.631,-240 614.631,-246 614.631,-252 614.631,-252 614.631,-264 614.631,-264 614.631,-270 608.631,-276 602.631,-276"/>
<text text-anchor="middle" x="584" y="-253.8" font-family="Helvetica,sans-Serif" font-size="14.00">Corpus</text>
</g>
<!-- ConstructCorpus&#45;&gt;Corpus -->
<g id="edge3" class="edge">
<title>ConstructCorpus&#45;&gt;Corpus</title>
<path fill="none" stroke="black" d="M645.836,-312.373C635.336,-303.141 623.093,-292.374 612.283,-282.869"/>
<polygon fill="black" stroke="black" points="614.532,-280.186 604.711,-276.211 609.909,-285.443 614.532,-280.186"/>
</g>
<!-- dictionary -->
<g id="node8" class="node">
<title>dictionary</title>
<path fill="#ffffcc" stroke="black" d="M696.917,-276C696.917,-276 645.083,-276 645.083,-276 639.083,-276 633.083,-270 633.083,-264 633.083,-264 633.083,-252 633.083,-252 633.083,-246 639.083,-240 645.083,-240 645.083,-240 696.917,-240 696.917,-240 702.917,-240 708.917,-246 708.917,-252 708.917,-252 708.917,-264 708.917,-264 708.917,-270 702.917,-276 696.917,-276"/>
<text text-anchor="middle" x="671" y="-253.8" font-family="Helvetica,sans-Serif" font-size="14.00">dictionary</text>
</g>
<!-- ConstructCorpus&#45;&gt;dictionary -->
<g id="edge2" class="edge">
<title>ConstructCorpus&#45;&gt;dictionary</title>
<path fill="none" stroke="black" d="M671,-312.373C671,-304.216 671,-294.862 671,-286.239"/>
<polygon fill="black" stroke="black" points="674.5,-286.211 671,-276.211 667.5,-286.211 674.5,-286.211"/>
</g>
<!-- run_log_output_port -->
<g id="node18" class="node">
<title>run_log_output_port</title>
<ellipse fill="#ffffff" stroke="black" cx="447" cy="-31" rx="7" ry="7"/>
</g>
<!-- run_log&#45;&gt;run_log_output_port -->
<g id="edge17" class="edge">
<title>run_log&#45;&gt;run_log_output_port</title>
<path fill="none" stroke="black" d="M337.677,-312.183C360.387,-253.772 421.172,-97.4295 440.798,-46.9523"/>
<polygon fill="black" stroke="black" points="444.06,-48.22 444.422,-37.6313 437.536,-45.6833 444.06,-48.22"/>
</g>
<!-- LDA_model_output_port -->
<g id="node19" class="node">
<title>LDA_model_output_port</title>
<ellipse fill="#ffffff" stroke="black" cx="479" cy="-31" rx="7" ry="7"/>
</g>
<!-- LDA_model&#45;&gt;LDA_model_output_port -->
<g id="edge18" class="edge">
<title>LDA_model&#45;&gt;LDA_model_output_port</title>
<path fill="none" stroke="black" d="M554.574,-78.3187C533.963,-65.414 509.084,-49.8367 493.65,-40.1727"/>
<polygon fill="black" stroke="black" points="495.344,-37.104 485.011,-34.7636 491.629,-43.037 495.344,-37.104"/>
</g>
<!-- Static_text -->
<g id="node6" class="node">
<title>Static_text</title>
<path fill="#ffffcc" stroke="black" d="M573.859,-393.5C573.859,-393.5 670.141,-393.5 670.141,-393.5 676.141,-393.5 682.141,-399.5 682.141,-405.5 682.141,-405.5 682.141,-425.5 682.141,-425.5 682.141,-431.5 676.141,-437.5 670.141,-437.5 670.141,-437.5 573.859,-437.5 573.859,-437.5 567.859,-437.5 561.859,-431.5 561.859,-425.5 561.859,-425.5 561.859,-405.5 561.859,-405.5 561.859,-399.5 567.859,-393.5 573.859,-393.5"/>
<text text-anchor="middle" x="622" y="-422.3" font-family="Helvetica,sans-Serif" font-size="14.00">Static_text</text>
<polyline fill="none" stroke="black" points="561.859,-415.5 682.141,-415.5 "/>
<text text-anchor="middle" x="622" y="-400.3" font-family="Helvetica,sans-Serif" font-size="14.00">file:news2012.txt</text>
</g>
<!-- Static_text&#45;&gt;ConstructCorpus -->
<g id="edge4" class="edge">
<title>Static_text&#45;&gt;ConstructCorpus</title>
<path fill="none" stroke="black" d="M635.389,-393.366C640.629,-384.705 646.729,-374.622 652.384,-365.274"/>
<polygon fill="black" stroke="black" points="655.445,-366.975 657.627,-356.607 649.456,-363.351 655.445,-366.975"/>
</g>
<!-- Corpus&#45;&gt;Train_LDA_Model -->
<g id="edge8" class="edge">
<title>Corpus&#45;&gt;Train_LDA_Model</title>
<path fill="none" stroke="black" d="M604.618,-239.871C614.661,-231.039 626.979,-220.208 638.266,-210.283"/>
<polygon fill="black" stroke="black" points="640.676,-212.825 645.874,-203.593 636.053,-207.568 640.676,-212.825"/>
</g>
<!-- dictionary&#45;&gt;Train_LDA_Model -->
<g id="edge9" class="edge">
<title>dictionary&#45;&gt;Train_LDA_Model</title>
<path fill="none" stroke="black" d="M671,-239.871C671,-232.058 671,-222.681 671,-213.75"/>
<polygon fill="black" stroke="black" points="674.5,-213.593 671,-203.593 667.5,-213.593 674.5,-213.593"/>
</g>
<!-- stopwords -->
<g id="node9" class="node">
<title>stopwords</title>
<path fill="#fcfcfc" stroke="black" d="M920.807,-433.5C920.807,-433.5 865.193,-433.5 865.193,-433.5 859.193,-433.5 853.193,-427.5 853.193,-421.5 853.193,-421.5 853.193,-409.5 853.193,-409.5 853.193,-403.5 859.193,-397.5 865.193,-397.5 865.193,-397.5 920.807,-397.5 920.807,-397.5 926.807,-397.5 932.807,-403.5 932.807,-409.5 932.807,-409.5 932.807,-421.5 932.807,-421.5 932.807,-427.5 926.807,-433.5 920.807,-433.5"/>
<text text-anchor="middle" x="893" y="-411.3" font-family="Helvetica,sans-Serif" font-size="14.00">stopwords</text>
</g>
<!-- stopwords&#45;&gt;ConstructCorpus -->
<g id="edge5" class="edge">
<title>stopwords&#45;&gt;ConstructCorpus</title>
<path fill="none" stroke="black" d="M855.447,-397.402C851.938,-395.861 848.417,-394.37 845,-393 815.234,-381.065 781.985,-369.474 752.59,-359.801"/>
<polygon fill="black" stroke="black" points="753.372,-356.375 742.78,-356.596 751.198,-363.029 753.372,-356.375"/>
</g>
<!-- regular_expression -->
<g id="node10" class="node">
<title>regular_expression</title>
<path fill="#fcfcfc" stroke="black" d="M823.568,-433.5C823.568,-433.5 712.432,-433.5 712.432,-433.5 706.432,-433.5 700.432,-427.5 700.432,-421.5 700.432,-421.5 700.432,-409.5 700.432,-409.5 700.432,-403.5 706.432,-397.5 712.432,-397.5 712.432,-397.5 823.568,-397.5 823.568,-397.5 829.568,-397.5 835.568,-403.5 835.568,-409.5 835.568,-409.5 835.568,-421.5 835.568,-421.5 835.568,-427.5 829.568,-433.5 823.568,-433.5"/>
<text text-anchor="middle" x="768" y="-411.3" font-family="Helvetica,sans-Serif" font-size="14.00">regular_expression</text>
</g>
<!-- regular_expression&#45;&gt;ConstructCorpus -->
<g id="edge6" class="edge">
<title>regular_expression&#45;&gt;ConstructCorpus</title>
<path fill="none" stroke="black" d="M745.989,-397.12C733.934,-387.053 718.729,-374.356 705.167,-363.031"/>
<polygon fill="black" stroke="black" points="707.327,-360.275 697.408,-356.552 702.84,-365.648 707.327,-360.275"/>
</g>
<!-- num_iteration -->
<g id="node11" class="node">
<title>num_iteration</title>
<path fill="#fcfcfc" stroke="black" d="M921.327,-276C921.327,-276 844.673,-276 844.673,-276 838.673,-276 832.673,-270 832.673,-264 832.673,-264 832.673,-252 832.673,-252 832.673,-246 838.673,-240 844.673,-240 844.673,-240 921.327,-240 921.327,-240 927.327,-240 933.327,-246 933.327,-252 933.327,-252 933.327,-264 933.327,-264 933.327,-270 927.327,-276 921.327,-276"/>
<text text-anchor="middle" x="883" y="-253.8" font-family="Helvetica,sans-Serif" font-size="14.00">num_iteration</text>
</g>
<!-- num_iteration&#45;&gt;Train_LDA_Model -->
<g id="edge10" class="edge">
<title>num_iteration&#45;&gt;Train_LDA_Model</title>
<path fill="none" stroke="black" d="M833.027,-239.967C805.744,-230.122 771.51,-217.769 741.548,-206.957"/>
<polygon fill="black" stroke="black" points="742.579,-203.608 731.984,-203.506 740.203,-210.193 742.579,-203.608"/>
</g>
<!-- num_topics -->
<g id="node12" class="node">
<title>num_topics</title>
<path fill="#fcfcfc" stroke="black" d="M802.594,-276C802.594,-276 739.406,-276 739.406,-276 733.406,-276 727.406,-270 727.406,-264 727.406,-264 727.406,-252 727.406,-252 727.406,-246 733.406,-240 739.406,-240 739.406,-240 802.594,-240 802.594,-240 808.594,-240 814.594,-246 814.594,-252 814.594,-252 814.594,-264 814.594,-264 814.594,-270 808.594,-276 802.594,-276"/>
<text text-anchor="middle" x="771" y="-253.8" font-family="Helvetica,sans-Serif" font-size="14.00">num_topics</text>
</g>
<!-- num_topics&#45;&gt;Train_LDA_Model -->
<g id="edge11" class="edge">
<title>num_topics&#45;&gt;Train_LDA_Model</title>
<path fill="none" stroke="black" d="M747.301,-239.871C735.535,-230.87 721.053,-219.79 707.878,-209.712"/>
<polygon fill="black" stroke="black" points="709.949,-206.889 699.88,-203.593 705.696,-212.449 709.949,-206.889"/>
</g>
<!-- Static_text_input_port -->
<g id="node13" class="node">
<title>Static_text_input_port</title>
<ellipse fill="#ffffff" stroke="black" cx="829" cy="-485" rx="7" ry="7"/>
</g>
<!-- Static_text_input_port&#45;&gt;Static_text -->
<g id="edge12" class="edge">
<title>Static_text_input_port&#45;&gt;Static_text</title>
<path fill="none" stroke="black" d="M821.9,-484.14C801.173,-481.474 739.17,-472.404 691,-454 682.621,-450.798 674.02,-446.721 665.858,-442.423"/>
<polygon fill="black" stroke="black" points="667.318,-439.233 656.864,-437.512 663.964,-445.376 667.318,-439.233"/>
</g>
<!-- stopwords_input_port -->
<g id="node14" class="node">
<title>stopwords_input_port</title>
<ellipse fill="#ffffff" stroke="black" cx="893" cy="-485" rx="7" ry="7"/>
</g>
<!-- stopwords_input_port&#45;&gt;stopwords -->
<g id="edge13" class="edge">
<title>stopwords_input_port&#45;&gt;stopwords</title>
<path fill="none" stroke="black" d="M893,-477.824C893,-469.75 893,-456.132 893,-443.682"/>
<polygon fill="black" stroke="black" points="896.5,-443.645 893,-433.645 889.5,-443.645 896.5,-443.645"/>
</g>
<!-- regular_expression_input_port -->
<g id="node15" class="node">
<title>regular_expression_input_port</title>
<ellipse fill="#ffffff" stroke="black" cx="861" cy="-485" rx="7" ry="7"/>
</g>
<!-- regular_expression_input_port&#45;&gt;regular_expression -->
<g id="edge14" class="edge">
<title>regular_expression_input_port&#45;&gt;regular_expression</title>
<path fill="none" stroke="black" d="M857.664,-478.802C854.779,-473.842 850.252,-466.924 845,-462 835.741,-453.319 824.599,-445.464 813.705,-438.784"/>
<polygon fill="black" stroke="black" points="815.453,-435.752 805.061,-433.686 811.897,-441.781 815.453,-435.752"/>
</g>
<!-- num_topics_input_port -->
<g id="node16" class="node">
<title>num_topics_input_port</title>
<ellipse fill="#ffffff" stroke="black" cx="925" cy="-485" rx="7" ry="7"/>
</g>
<!-- num_topics_input_port&#45;&gt;num_topics -->
<g id="edge15" class="edge">
<title>num_topics_input_port&#45;&gt;num_topics</title>
<path fill="none" stroke="black" d="M929.351,-479.205C933.531,-473.245 939.563,-463.514 942,-454 958.158,-390.929 952.898,-357.162 906,-312 899.601,-305.838 859.422,-290.126 824.546,-277.229"/>
<polygon fill="black" stroke="black" points="825.476,-273.842 814.882,-273.676 823.061,-280.412 825.476,-273.842"/>
</g>
<!-- num_iteration_input_port -->
<g id="node17" class="node">
<title>num_iteration_input_port</title>
<ellipse fill="#ffffff" stroke="black" cx="957" cy="-485" rx="7" ry="7"/>
</g>
<!-- num_iteration_input_port&#45;&gt;num_iteration -->
<g id="edge16" class="edge">
<title>num_iteration_input_port&#45;&gt;num_iteration</title>
<path fill="none" stroke="black" d="M961.603,-479.248C966.027,-473.321 972.411,-463.615 975,-454 991.41,-393.06 1006.36,-366.769 975,-312 967.523,-298.941 955.525,-288.732 942.628,-280.88"/>
<polygon fill="black" stroke="black" points="944.035,-277.655 933.601,-275.813 940.609,-283.76 944.035,-277.655"/>
</g>
</g>
</svg>
