<?xml version="1.0" encoding="UTF-8" standalone="no"?>
<!DOCTYPE svg PUBLIC "-//W3C//DTD SVG 1.1//EN"
 "http://www.w3.org/Graphics/SVG/1.1/DTD/svg11.dtd">
<!-- Generated by graphviz version 2.39.20160823.1445 (20160823.1445)
 -->
<!-- Title: Workflow Pages: 1 -->
<svg width="870pt" height="550pt"
 viewBox="0.00 0.00 870.00 550.00" xmlns="http://www.w3.org/2000/svg" xmlns:xlink="http://www.w3.org/1999/xlink">
<g id="graph0" class="graph" transform="scale(1 1) rotate(0) translate(4 546)">
<title>Workflow</title>
<polygon fill="white" stroke="transparent" points="-4,4 -4,-546 866,-546 866,4 -4,4"/>
<text text-anchor="middle" x="431" y="-523.6" font-family="Courier,monospace" font-size="18.00">topic_modeling</text>
<g id="clust1" class="cluster">
<title>cluster_workflow_box_outer</title>
<polygon fill="none" stroke="black" stroke-width="2" points="8,-62 8,-454 854,-454 854,-62 8,-62"/>
</g>
<g id="clust2" class="cluster">
<title>cluster_workflow_box_inner</title>
<polygon fill="none" stroke="white" stroke-width="2" points="16,-70 16,-446 846,-446 846,-70 16,-70"/>
</g>
<g id="clust3" class="cluster">
<title>cluster_input_ports_group_outer</title>
<polygon fill="none" stroke="white" points="329,-462 329,-508 503,-508 503,-462 329,-462"/>
</g>
<g id="clust4" class="cluster">
<title>cluster_input_ports_group_inner</title>
<polygon fill="none" stroke="white" points="337,-470 337,-500 495,-500 495,-470 337,-470"/>
</g>
<g id="clust5" class="cluster">
<title>cluster_output_ports_group_outer</title>
<polygon fill="none" stroke="white" points="191,-8 191,-54 269,-54 269,-8 191,-8"/>
</g>
<g id="clust6" class="cluster">
<title>cluster_output_ports_group_inner</title>
<polygon fill="none" stroke="white" points="199,-16 199,-46 261,-46 261,-16 199,-16"/>
</g>
<!-- initialize_run -->
<g id="node1" class="node">
<title>initialize_run</title>
<polygon fill="#ccffcc" stroke="black" points="317.959,-159.5 317.959,-203.5 838.041,-203.5 838.041,-159.5 317.959,-159.5"/>
<text text-anchor="middle" x="578" y="-188.3" font-family="Courier,monospace" font-size="14.00">initialize_run</text>
<polyline fill="none" stroke="black" points="317.959,-181.5 838.041,-181.5 "/>
<text text-anchor="middle" x="578" y="-166.3" font-family="Courier,monospace" font-size="14.00">Using Logging to track events that happen when software runs</text>
</g>
<!-- LogFile -->
<g id="node4" class="node">
<title>LogFile</title>
<path fill="#ffffcc" stroke="black" d="M256.469,-78.5C256.469,-78.5 339.531,-78.5 339.531,-78.5 345.531,-78.5 351.531,-84.5 351.531,-90.5 351.531,-90.5 351.531,-110.5 351.531,-110.5 351.531,-116.5 345.531,-122.5 339.531,-122.5 339.531,-122.5 256.469,-122.5 256.469,-122.5 250.469,-122.5 244.469,-116.5 244.469,-110.5 244.469,-110.5 244.469,-90.5 244.469,-90.5 244.469,-84.5 250.469,-78.5 256.469,-78.5"/>
<text text-anchor="middle" x="298" y="-107.3" font-family="Helvetica,sans-Serif" font-size="14.00">LogFile</text>
<polyline fill="none" stroke="black" points="244.469,-100.5 351.531,-100.5 "/>
<text text-anchor="middle" x="298" y="-85.3" font-family="Helvetica,sans-Serif" font-size="14.00">file:run_log.log</text>
</g>
<!-- initialize_run&#45;&gt;LogFile -->
<g id="edge1" class="edge">
<title>initialize_run&#45;&gt;LogFile</title>
<path fill="none" stroke="black" d="M501.859,-159.473C457.932,-146.766 403.33,-130.97 361.694,-118.926"/>
<polygon fill="black" stroke="black" points="362.521,-115.522 351.942,-116.105 360.576,-122.246 362.521,-115.522"/>
</g>
<!-- Train_LDA_Model -->
<g id="node2" class="node">
<title>Train_LDA_Model</title>
<polygon fill="#ccffcc" stroke="black" points="23.7788,-159.5 23.7788,-203.5 300.221,-203.5 300.221,-159.5 23.7788,-159.5"/>
<text text-anchor="middle" x="162" y="-188.3" font-family="Courier,monospace" font-size="14.00">Train_LDA_Model</text>
<polyline fill="none" stroke="black" points="23.7788,-181.5 300.221,-181.5 "/>
<text text-anchor="middle" x="162" y="-166.3" font-family="Courier,monospace" font-size="14.00">using Gensim.LDA to do training</text>
</g>
<!-- Train_LDA_Model&#45;&gt;LogFile -->
<g id="edge8" class="edge">
<title>Train_LDA_Model&#45;&gt;LogFile</title>
<path fill="none" stroke="black" d="M199.163,-159.366C215.504,-149.634 234.86,-138.106 252.092,-127.842"/>
<polygon fill="black" stroke="black" points="254.082,-130.731 260.882,-122.607 250.5,-124.717 254.082,-130.731"/>
</g>
<!-- LDA_model -->
<g id="node5" class="node">
<title>LDA_model</title>
<path fill="#ffffcc" stroke="black" d="M109.197,-78.5C109.197,-78.5 214.803,-78.5 214.803,-78.5 220.803,-78.5 226.803,-84.5 226.803,-90.5 226.803,-90.5 226.803,-110.5 226.803,-110.5 226.803,-116.5 220.803,-122.5 214.803,-122.5 214.803,-122.5 109.197,-122.5 109.197,-122.5 103.197,-122.5 97.1968,-116.5 97.1968,-110.5 97.1968,-110.5 97.1968,-90.5 97.1968,-90.5 97.1968,-84.5 103.197,-78.5 109.197,-78.5"/>
<text text-anchor="middle" x="162" y="-107.3" font-family="Helvetica,sans-Serif" font-size="14.00">LDA_model</text>
<polyline fill="none" stroke="black" points="97.1968,-100.5 226.803,-100.5 "/>
<text text-anchor="middle" x="162" y="-85.3" font-family="Helvetica,sans-Serif" font-size="14.00">file:LDA_model.txt</text>
</g>
<!-- Train_LDA_Model&#45;&gt;LDA_model -->
<g id="edge7" class="edge">
<title>Train_LDA_Model&#45;&gt;LDA_model</title>
<path fill="none" stroke="black" d="M162,-159.366C162,-151.152 162,-141.658 162,-132.725"/>
<polygon fill="black" stroke="black" points="165.5,-132.607 162,-122.607 158.5,-132.607 165.5,-132.607"/>
</g>
<!-- ConstructCorpus -->
<g id="node3" class="node">
<title>ConstructCorpus</title>
<polygon fill="#ccffcc" stroke="black" points="23.5645,-312.5 23.5645,-356.5 476.436,-356.5 476.436,-312.5 23.5645,-312.5"/>
<text text-anchor="middle" x="250" y="-341.3" font-family="Courier,monospace" font-size="14.00">ConstructCorpus</text>
<polyline fill="none" stroke="black" points="23.5645,-334.5 476.436,-334.5 "/>
<text text-anchor="middle" x="250" y="-319.3" font-family="Courier,monospace" font-size="14.00">Using Gensim to construct corpus to train LDA models</text>
</g>
<!-- Corpus -->
<g id="node7" class="node">
<title>Corpus</title>
<path fill="#ffffcc" stroke="black" d="M180.631,-276C180.631,-276 143.369,-276 143.369,-276 137.369,-276 131.369,-270 131.369,-264 131.369,-264 131.369,-252 131.369,-252 131.369,-246 137.369,-240 143.369,-240 143.369,-240 180.631,-240 180.631,-240 186.631,-240 192.631,-246 192.631,-252 192.631,-252 192.631,-264 192.631,-264 192.631,-270 186.631,-276 180.631,-276"/>
<text text-anchor="middle" x="162" y="-253.8" font-family="Helvetica,sans-Serif" font-size="14.00">Corpus</text>
</g>
<!-- ConstructCorpus&#45;&gt;Corpus -->
<g id="edge3" class="edge">
<title>ConstructCorpus&#45;&gt;Corpus</title>
<path fill="none" stroke="black" d="M224.547,-312.373C213.927,-303.141 201.542,-292.374 190.608,-282.869"/>
<polygon fill="black" stroke="black" points="192.792,-280.131 182.949,-276.211 188.2,-285.414 192.792,-280.131"/>
</g>
<!-- dictionary -->
<g id="node8" class="node">
<title>dictionary</title>
<path fill="#ffffcc" stroke="black" d="M274.917,-276C274.917,-276 223.083,-276 223.083,-276 217.083,-276 211.083,-270 211.083,-264 211.083,-264 211.083,-252 211.083,-252 211.083,-246 217.083,-240 223.083,-240 223.083,-240 274.917,-240 274.917,-240 280.917,-240 286.917,-246 286.917,-252 286.917,-252 286.917,-264 286.917,-264 286.917,-270 280.917,-276 274.917,-276"/>
<text text-anchor="middle" x="249" y="-253.8" font-family="Helvetica,sans-Serif" font-size="14.00">dictionary</text>
</g>
<!-- ConstructCorpus&#45;&gt;dictionary -->
<g id="edge2" class="edge">
<title>ConstructCorpus&#45;&gt;dictionary</title>
<path fill="none" stroke="black" d="M249.711,-312.373C249.604,-304.216 249.482,-294.862 249.369,-286.239"/>
<polygon fill="black" stroke="black" points="252.869,-286.165 249.238,-276.211 245.869,-286.256 252.869,-286.165"/>
</g>
<!-- LogFile_output_port -->
<g id="node18" class="node">
<title>LogFile_output_port</title>
<ellipse fill="#ffffff" stroke="black" cx="246" cy="-31" rx="7" ry="7"/>
</g>
<!-- LogFile&#45;&gt;LogFile_output_port -->
<g id="edge18" class="edge">
<title>LogFile&#45;&gt;LogFile_output_port</title>
<path fill="none" stroke="black" d="M281.261,-78.1272C273.066,-67.175 263.46,-54.3361 256.345,-44.8271"/>
<polygon fill="black" stroke="black" points="258.999,-42.5314 250.206,-36.6213 253.394,-46.725 258.999,-42.5314"/>
</g>
<!-- LDA_model_output_port -->
<g id="node19" class="node">
<title>LDA_model_output_port</title>
<ellipse fill="#ffffff" stroke="black" cx="214" cy="-31" rx="7" ry="7"/>
</g>
<!-- LDA_model&#45;&gt;LDA_model_output_port -->
<g id="edge19" class="edge">
<title>LDA_model&#45;&gt;LDA_model_output_port</title>
<path fill="none" stroke="black" d="M178.739,-78.1272C186.934,-67.175 196.54,-54.3361 203.655,-44.8271"/>
<polygon fill="black" stroke="black" points="206.606,-46.725 209.794,-36.6213 201.001,-42.5314 206.606,-46.725"/>
</g>
<!-- Static_text -->
<g id="node6" class="node">
<title>Static_text</title>
<path fill="#ffffcc" stroke="black" d="M367.859,-393.5C367.859,-393.5 464.141,-393.5 464.141,-393.5 470.141,-393.5 476.141,-399.5 476.141,-405.5 476.141,-405.5 476.141,-425.5 476.141,-425.5 476.141,-431.5 470.141,-437.5 464.141,-437.5 464.141,-437.5 367.859,-437.5 367.859,-437.5 361.859,-437.5 355.859,-431.5 355.859,-425.5 355.859,-425.5 355.859,-405.5 355.859,-405.5 355.859,-399.5 361.859,-393.5 367.859,-393.5"/>
<text text-anchor="middle" x="416" y="-422.3" font-family="Helvetica,sans-Serif" font-size="14.00">Static_text</text>
<polyline fill="none" stroke="black" points="355.859,-415.5 476.141,-415.5 "/>
<text text-anchor="middle" x="416" y="-400.3" font-family="Helvetica,sans-Serif" font-size="14.00">file:news2012.txt</text>
</g>
<!-- Static_text&#45;&gt;ConstructCorpus -->
<g id="edge4" class="edge">
<title>Static_text&#45;&gt;ConstructCorpus</title>
<path fill="none" stroke="black" d="M370.64,-393.366C350.145,-383.366 325.765,-371.47 304.304,-360.998"/>
<polygon fill="black" stroke="black" points="305.827,-357.847 295.305,-356.607 302.758,-364.138 305.827,-357.847"/>
</g>
<!-- Corpus&#45;&gt;Train_LDA_Model -->
<g id="edge9" class="edge">
<title>Corpus&#45;&gt;Train_LDA_Model</title>
<path fill="none" stroke="black" d="M162,-239.871C162,-232.058 162,-222.681 162,-213.75"/>
<polygon fill="black" stroke="black" points="165.5,-213.593 162,-203.593 158.5,-213.593 165.5,-213.593"/>
</g>
<!-- dictionary&#45;&gt;Train_LDA_Model -->
<g id="edge10" class="edge">
<title>dictionary&#45;&gt;Train_LDA_Model</title>
<path fill="none" stroke="black" d="M228.382,-239.871C218.339,-231.039 206.021,-220.208 194.734,-210.283"/>
<polygon fill="black" stroke="black" points="196.947,-207.568 187.126,-203.593 192.324,-212.825 196.947,-207.568"/>
</g>
<!-- stopwords -->
<g id="node9" class="node">
<title>stopwords</title>
<path fill="#fcfcfc" stroke="black" d="M325.807,-433.5C325.807,-433.5 270.193,-433.5 270.193,-433.5 264.193,-433.5 258.193,-427.5 258.193,-421.5 258.193,-421.5 258.193,-409.5 258.193,-409.5 258.193,-403.5 264.193,-397.5 270.193,-397.5 270.193,-397.5 325.807,-397.5 325.807,-397.5 331.807,-397.5 337.807,-403.5 337.807,-409.5 337.807,-409.5 337.807,-421.5 337.807,-421.5 337.807,-427.5 331.807,-433.5 325.807,-433.5"/>
<text text-anchor="middle" x="298" y="-411.3" font-family="Helvetica,sans-Serif" font-size="14.00">stopwords</text>
</g>
<!-- stopwords&#45;&gt;ConstructCorpus -->
<g id="edge5" class="edge">
<title>stopwords&#45;&gt;ConstructCorpus</title>
<path fill="none" stroke="black" d="M287.108,-397.12C281.533,-387.712 274.596,-376.006 268.234,-365.27"/>
<polygon fill="black" stroke="black" points="271.177,-363.37 263.068,-356.552 265.155,-366.939 271.177,-363.37"/>
</g>
<!-- regular_expression -->
<g id="node10" class="node">
<title>regular_expression</title>
<path fill="#fcfcfc" stroke="black" d="M228.568,-433.5C228.568,-433.5 117.432,-433.5 117.432,-433.5 111.432,-433.5 105.432,-427.5 105.432,-421.5 105.432,-421.5 105.432,-409.5 105.432,-409.5 105.432,-403.5 111.432,-397.5 117.432,-397.5 117.432,-397.5 228.568,-397.5 228.568,-397.5 234.568,-397.5 240.568,-403.5 240.568,-409.5 240.568,-409.5 240.568,-421.5 240.568,-421.5 240.568,-427.5 234.568,-433.5 228.568,-433.5"/>
<text text-anchor="middle" x="173" y="-411.3" font-family="Helvetica,sans-Serif" font-size="14.00">regular_expression</text>
</g>
<!-- regular_expression&#45;&gt;ConstructCorpus -->
<g id="edge6" class="edge">
<title>regular_expression&#45;&gt;ConstructCorpus</title>
<path fill="none" stroke="black" d="M190.472,-397.12C199.774,-387.335 211.437,-375.066 221.969,-363.987"/>
<polygon fill="black" stroke="black" points="224.684,-366.211 229.037,-356.552 219.611,-361.388 224.684,-366.211"/>
</g>
<!-- num_iteration -->
<g id="node11" class="node">
<title>num_iteration</title>
<path fill="#fcfcfc" stroke="black" d="M559.327,-276C559.327,-276 482.673,-276 482.673,-276 476.673,-276 470.673,-270 470.673,-264 470.673,-264 470.673,-252 470.673,-252 470.673,-246 476.673,-240 482.673,-240 482.673,-240 559.327,-240 559.327,-240 565.327,-240 571.327,-246 571.327,-252 571.327,-252 571.327,-264 571.327,-264 571.327,-270 565.327,-276 559.327,-276"/>
<text text-anchor="middle" x="521" y="-253.8" font-family="Helvetica,sans-Serif" font-size="14.00">num_iteration</text>
</g>
<!-- num_iteration&#45;&gt;Train_LDA_Model -->
<g id="edge11" class="edge">
<title>num_iteration&#45;&gt;Train_LDA_Model</title>
<path fill="none" stroke="black" d="M470.458,-246.341C461.007,-244.202 451.208,-242.011 442,-240 388.782,-228.379 329.765,-215.977 279.688,-205.596"/>
<polygon fill="black" stroke="black" points="280.299,-202.148 269.797,-203.548 278.879,-209.003 280.299,-202.148"/>
</g>
<!-- num_topics -->
<g id="node12" class="node">
<title>num_topics</title>
<path fill="#fcfcfc" stroke="black" d="M420.594,-276C420.594,-276 357.406,-276 357.406,-276 351.406,-276 345.406,-270 345.406,-264 345.406,-264 345.406,-252 345.406,-252 345.406,-246 351.406,-240 357.406,-240 357.406,-240 420.594,-240 420.594,-240 426.594,-240 432.594,-246 432.594,-252 432.594,-252 432.594,-264 432.594,-264 432.594,-270 426.594,-276 420.594,-276"/>
<text text-anchor="middle" x="389" y="-253.8" font-family="Helvetica,sans-Serif" font-size="14.00">num_topics</text>
</g>
<!-- num_topics&#45;&gt;Train_LDA_Model -->
<g id="edge12" class="edge">
<title>num_topics&#45;&gt;Train_LDA_Model</title>
<path fill="none" stroke="black" d="M345.232,-243.25C314.731,-232.971 273.262,-218.996 237.488,-206.94"/>
<polygon fill="black" stroke="black" points="238.157,-203.472 227.563,-203.595 235.921,-210.105 238.157,-203.472"/>
</g>
<!-- Static_text_input_port -->
<g id="node13" class="node">
<title>Static_text_input_port</title>
<ellipse fill="#ffffff" stroke="black" cx="416" cy="-485" rx="7" ry="7"/>
</g>
<!-- Static_text_input_port&#45;&gt;Static_text -->
<g id="edge13" class="edge">
<title>Static_text_input_port&#45;&gt;Static_text</title>
<path fill="none" stroke="black" d="M416,-477.824C416,-470.602 416,-458.944 416,-447.653"/>
<polygon fill="black" stroke="black" points="419.5,-447.526 416,-437.526 412.5,-447.526 419.5,-447.526"/>
</g>
<!-- stopwords_input_port -->
<g id="node14" class="node">
<title>stopwords_input_port</title>
<ellipse fill="#ffffff" stroke="black" cx="384" cy="-485" rx="7" ry="7"/>
</g>
<!-- stopwords_input_port&#45;&gt;stopwords -->
<g id="edge14" class="edge">
<title>stopwords_input_port&#45;&gt;stopwords</title>
<path fill="none" stroke="black" d="M380.888,-478.541C378.133,-473.428 373.672,-466.434 368,-462 360.131,-455.849 355.692,-458.919 347,-454 339.982,-450.029 332.898,-445.107 326.38,-440.124"/>
<polygon fill="black" stroke="black" points="328.483,-437.324 318.475,-433.847 324.13,-442.806 328.483,-437.324"/>
</g>
<!-- regular_expression_input_port -->
<g id="node15" class="node">
<title>regular_expression_input_port</title>
<ellipse fill="#ffffff" stroke="black" cx="352" cy="-485" rx="7" ry="7"/>
</g>
<!-- regular_expression_input_port&#45;&gt;regular_expression -->
<g id="edge15" class="edge">
<title>regular_expression_input_port&#45;&gt;regular_expression</title>
<path fill="none" stroke="black" d="M344.86,-483.315C327.905,-479.213 284.022,-468.014 249,-454 237.628,-449.45 225.66,-443.814 214.673,-438.272"/>
<polygon fill="black" stroke="black" points="216.202,-435.123 205.708,-433.665 213.002,-441.349 216.202,-435.123"/>
</g>
<!-- num_topics_input_port -->
<g id="node16" class="node">
<title>num_topics_input_port</title>
<ellipse fill="#ffffff" stroke="black" cx="448" cy="-485" rx="7" ry="7"/>
</g>
<!-- num_topics_input_port&#45;&gt;num_topics -->
<g id="edge16" class="edge">
<title>num_topics_input_port&#45;&gt;num_topics</title>
<path fill="none" stroke="black" d="M451.112,-478.541C453.867,-473.428 458.328,-466.434 464,-462 471.869,-455.849 479.332,-462.224 485,-454 520.813,-402.034 516.861,-366.478 485,-312 475.388,-295.566 458.732,-283.747 441.965,-275.439"/>
<polygon fill="black" stroke="black" points="443.231,-272.169 432.683,-271.177 440.311,-278.53 443.231,-272.169"/>
</g>
<!-- num_iteration_input_port -->
<g id="node17" class="node">
<title>num_iteration_input_port</title>
<ellipse fill="#ffffff" stroke="black" cx="480" cy="-485" rx="7" ry="7"/>
</g>
<!-- num_iteration_input_port&#45;&gt;num_iteration -->
<g id="edge17" class="edge">
<title>num_iteration_input_port&#45;&gt;num_iteration</title>
<path fill="none" stroke="black" d="M486.594,-481.919C495.604,-477.299 511.396,-467.64 518,-454 544.422,-399.427 535.52,-325.881 527.664,-286.204"/>
<polygon fill="black" stroke="black" points="531.041,-285.251 525.558,-276.185 524.19,-286.691 531.041,-285.251"/>
</g>
</g>
</svg>
