<?xml version="1.0" encoding="UTF-8" standalone="no"?>
<!DOCTYPE svg PUBLIC "-//W3C//DTD SVG 1.1//EN"
 "http://www.w3.org/Graphics/SVG/1.1/DTD/svg11.dtd">
<!-- Generated by graphviz version 2.39.20160823.1445 (20160823.1445)
 -->
<!-- Title: yw_data_view Pages: 1 -->
<svg width="573pt" height="514pt"
 viewBox="0.00 0.00 573.14 514.00" xmlns="http://www.w3.org/2000/svg" xmlns:xlink="http://www.w3.org/1999/xlink">
<g id="graph0" class="graph" transform="scale(1 1) rotate(0) translate(4 510)">
<title>yw_data_view</title>
<polygon fill="white" stroke="transparent" points="-4,4 -4,-510 569.144,-510 569.144,4 -4,4"/>
<text text-anchor="middle" x="282.572" y="-487.6" font-family="Courier,monospace" font-size="18.00">topic_modeling</text>
<g id="clust1" class="cluster">
<title>cluster_workflow</title>
<polygon fill="none" stroke="black" stroke-width="2" points="8,-62 8,-418 523,-418 523,-62 8,-62"/>
</g>
<g id="clust2" class="cluster">
<title>cluster_workflow_inner</title>
<polygon fill="none" stroke="white" stroke-width="2" points="16,-70 16,-410 515,-410 515,-70 16,-70"/>
</g>
<g id="clust3" class="cluster">
<title>cluster_inflows</title>
<polygon fill="none" stroke="white" stroke-width="2" points="380,-426 380,-472 554,-472 554,-426 380,-426"/>
</g>
<g id="clust4" class="cluster">
<title>cluster_inflows_inner</title>
<polygon fill="none" stroke="white" stroke-width="2" points="388,-434 388,-464 546,-464 546,-434 388,-434"/>
</g>
<g id="clust5" class="cluster">
<title>cluster_outflows</title>
<polygon fill="none" stroke="white" stroke-width="2" points="92,-8 92,-54 170,-54 170,-8 92,-8"/>
</g>
<g id="clust6" class="cluster">
<title>cluster_outflows_inner</title>
<polygon fill="none" stroke="white" stroke-width="2" points="100,-16 100,-46 162,-46 162,-16 100,-16"/>
</g>
<!-- initialize_run -->
<g id="node1" class="node">
<title>initialize_run</title>
<polygon fill="#ccffcc" stroke="black" points="157.62,-402 24.3803,-402 24.3803,-366 157.62,-366 157.62,-402"/>
<text text-anchor="middle" x="91" y="-379.8" font-family="Courier,monospace" font-size="14.00">initialize_run</text>
</g>
<!-- run_log -->
<g id="node4" class="node">
<title>run_log</title>
<path fill="#ffffcc" stroke="black" d="M112.204,-330C112.204,-330 73.7962,-330 73.7962,-330 67.7962,-330 61.7962,-324 61.7962,-318 61.7962,-318 61.7962,-306 61.7962,-306 61.7962,-300 67.7962,-294 73.7962,-294 73.7962,-294 112.204,-294 112.204,-294 118.204,-294 124.204,-300 124.204,-306 124.204,-306 124.204,-318 124.204,-318 124.204,-324 118.204,-330 112.204,-330"/>
<text text-anchor="middle" x="93" y="-307.8" font-family="Helvetica,sans-Serif" font-size="14.00">run_log</text>
</g>
<!-- initialize_run&#45;&gt;run_log -->
<g id="edge8" class="edge">
<title>initialize_run&#45;&gt;run_log</title>
<path fill="none" stroke="black" d="M91.5047,-365.831C91.7186,-358.131 91.9729,-348.974 92.2106,-340.417"/>
<polygon fill="black" stroke="black" points="95.7094,-340.507 92.4885,-330.413 88.7121,-340.312 95.7094,-340.507"/>
</g>
<!-- Train_LDA_Model -->
<g id="node2" class="node">
<title>Train_LDA_Model</title>
<polygon fill="#ccffcc" stroke="black" points="323.021,-186 180.979,-186 180.979,-150 323.021,-150 323.021,-186"/>
<text text-anchor="middle" x="252" y="-163.8" font-family="Courier,monospace" font-size="14.00">Train_LDA_Model</text>
</g>
<!-- LDA_model -->
<g id="node8" class="node">
<title>LDA_model</title>
<path fill="#ffffcc" stroke="black" d="M242.651,-114C242.651,-114 177.349,-114 177.349,-114 171.349,-114 165.349,-108 165.349,-102 165.349,-102 165.349,-90 165.349,-90 165.349,-84 171.349,-78 177.349,-78 177.349,-78 242.651,-78 242.651,-78 248.651,-78 254.651,-84 254.651,-90 254.651,-90 254.651,-102 254.651,-102 254.651,-108 248.651,-114 242.651,-114"/>
<text text-anchor="middle" x="210" y="-91.8" font-family="Helvetica,sans-Serif" font-size="14.00">LDA_model</text>
</g>
<!-- Train_LDA_Model&#45;&gt;LDA_model -->
<g id="edge11" class="edge">
<title>Train_LDA_Model&#45;&gt;LDA_model</title>
<path fill="none" stroke="black" d="M241.402,-149.831C236.712,-141.792 231.097,-132.167 225.92,-123.292"/>
<polygon fill="black" stroke="black" points="228.803,-121.288 220.741,-114.413 222.757,-124.815 228.803,-121.288"/>
</g>
<!-- ConstructCorpus -->
<g id="node3" class="node">
<title>ConstructCorpus</title>
<polygon fill="#ccffcc" stroke="black" points="323.021,-330 180.979,-330 180.979,-294 323.021,-294 323.021,-330"/>
<text text-anchor="middle" x="252" y="-307.8" font-family="Courier,monospace" font-size="14.00">ConstructCorpus</text>
</g>
<!-- dictionary -->
<g id="node6" class="node">
<title>dictionary</title>
<path fill="#ffffcc" stroke="black" d="M190.917,-258C190.917,-258 139.083,-258 139.083,-258 133.083,-258 127.083,-252 127.083,-246 127.083,-246 127.083,-234 127.083,-234 127.083,-228 133.083,-222 139.083,-222 139.083,-222 190.917,-222 190.917,-222 196.917,-222 202.917,-228 202.917,-234 202.917,-234 202.917,-246 202.917,-246 202.917,-252 196.917,-258 190.917,-258"/>
<text text-anchor="middle" x="165" y="-235.8" font-family="Helvetica,sans-Serif" font-size="14.00">dictionary</text>
</g>
<!-- ConstructCorpus&#45;&gt;dictionary -->
<g id="edge9" class="edge">
<title>ConstructCorpus&#45;&gt;dictionary</title>
<path fill="none" stroke="black" d="M230.046,-293.831C219.331,-284.963 206.281,-274.164 194.691,-264.572"/>
<polygon fill="black" stroke="black" points="196.882,-261.842 186.947,-258.163 192.419,-267.235 196.882,-261.842"/>
</g>
<!-- Corpus -->
<g id="node7" class="node">
<title>Corpus</title>
<path fill="#ffffcc" stroke="black" d="M270.631,-258C270.631,-258 233.369,-258 233.369,-258 227.369,-258 221.369,-252 221.369,-246 221.369,-246 221.369,-234 221.369,-234 221.369,-228 227.369,-222 233.369,-222 233.369,-222 270.631,-222 270.631,-222 276.631,-222 282.631,-228 282.631,-234 282.631,-234 282.631,-246 282.631,-246 282.631,-252 276.631,-258 270.631,-258"/>
<text text-anchor="middle" x="252" y="-235.8" font-family="Helvetica,sans-Serif" font-size="14.00">Corpus</text>
</g>
<!-- ConstructCorpus&#45;&gt;Corpus -->
<g id="edge10" class="edge">
<title>ConstructCorpus&#45;&gt;Corpus</title>
<path fill="none" stroke="black" d="M252,-293.831C252,-286.131 252,-276.974 252,-268.417"/>
<polygon fill="black" stroke="black" points="255.5,-268.413 252,-258.413 248.5,-268.413 255.5,-268.413"/>
</g>
<!-- run_log_outflow -->
<g id="node19" class="node">
<title>run_log_outflow</title>
<ellipse fill="none" stroke="black" cx="115" cy="-31" rx="7" ry="7"/>
</g>
<!-- run_log&#45;&gt;run_log_outflow -->
<g id="edge18" class="edge">
<title>run_log&#45;&gt;run_log_outflow</title>
<path fill="none" stroke="black" d="M94.4097,-293.995C98.3957,-243.082 109.713,-98.5293 113.639,-48.3856"/>
<polygon fill="black" stroke="black" points="117.142,-48.4857 114.433,-38.243 110.163,-47.9392 117.142,-48.4857"/>
</g>
<!-- Static_text -->
<g id="node5" class="node">
<title>Static_text</title>
<path fill="#ffffcc" stroke="black" d="M244.866,-402C244.866,-402 187.134,-402 187.134,-402 181.134,-402 175.134,-396 175.134,-390 175.134,-390 175.134,-378 175.134,-378 175.134,-372 181.134,-366 187.134,-366 187.134,-366 244.866,-366 244.866,-366 250.866,-366 256.866,-372 256.866,-378 256.866,-378 256.866,-390 256.866,-390 256.866,-396 250.866,-402 244.866,-402"/>
<text text-anchor="middle" x="216" y="-379.8" font-family="Helvetica,sans-Serif" font-size="14.00">Static_text</text>
</g>
<!-- Static_text&#45;&gt;ConstructCorpus -->
<g id="edge1" class="edge">
<title>Static_text&#45;&gt;ConstructCorpus</title>
<path fill="none" stroke="black" d="M225.084,-365.831C229.061,-357.877 233.815,-348.369 238.214,-339.572"/>
<polygon fill="black" stroke="black" points="241.452,-340.923 242.793,-330.413 235.191,-337.792 241.452,-340.923"/>
</g>
<!-- dictionary&#45;&gt;Train_LDA_Model -->
<g id="edge4" class="edge">
<title>dictionary&#45;&gt;Train_LDA_Model</title>
<path fill="none" stroke="black" d="M186.954,-221.831C197.669,-212.963 210.719,-202.164 222.309,-192.572"/>
<polygon fill="black" stroke="black" points="224.581,-195.235 230.053,-186.163 220.118,-189.842 224.581,-195.235"/>
</g>
<!-- Corpus&#45;&gt;Train_LDA_Model -->
<g id="edge5" class="edge">
<title>Corpus&#45;&gt;Train_LDA_Model</title>
<path fill="none" stroke="black" d="M252,-221.831C252,-214.131 252,-204.974 252,-196.417"/>
<polygon fill="black" stroke="black" points="255.5,-196.413 252,-186.413 248.5,-196.413 255.5,-196.413"/>
</g>
<!-- LDA_model_outflow -->
<g id="node18" class="node">
<title>LDA_model_outflow</title>
<ellipse fill="none" stroke="black" cx="147" cy="-31" rx="7" ry="7"/>
</g>
<!-- LDA_model&#45;&gt;LDA_model_outflow -->
<g id="edge17" class="edge">
<title>LDA_model&#45;&gt;LDA_model_outflow</title>
<path fill="none" stroke="black" d="M192.451,-77.8939C181.863,-66.9697 168.64,-53.3265 159.19,-43.5774"/>
<polygon fill="black" stroke="black" points="161.492,-40.9234 152.019,-36.1786 156.466,-45.7952 161.492,-40.9234"/>
</g>
<!-- stopwords -->
<g id="node9" class="node">
<title>stopwords</title>
<path fill="#ffffff" stroke="black" d="M494.807,-402C494.807,-402 439.193,-402 439.193,-402 433.193,-402 427.193,-396 427.193,-390 427.193,-390 427.193,-378 427.193,-378 427.193,-372 433.193,-366 439.193,-366 439.193,-366 494.807,-366 494.807,-366 500.807,-366 506.807,-372 506.807,-378 506.807,-378 506.807,-390 506.807,-390 506.807,-396 500.807,-402 494.807,-402"/>
<text text-anchor="middle" x="467" y="-379.8" font-family="Helvetica,sans-Serif" font-size="14.00">stopwords</text>
</g>
<!-- stopwords&#45;&gt;ConstructCorpus -->
<g id="edge2" class="edge">
<title>stopwords&#45;&gt;ConstructCorpus</title>
<path fill="none" stroke="black" d="M426.978,-368.835C424.283,-367.862 421.605,-366.909 419,-366 386.55,-354.676 350.276,-342.848 319.846,-333.158"/>
<polygon fill="black" stroke="black" points="320.775,-329.781 310.184,-330.09 318.656,-336.452 320.775,-329.781"/>
</g>
<!-- regular_expression -->
<g id="node10" class="node">
<title>regular_expression</title>
<path fill="#ffffff" stroke="black" d="M397.568,-402C397.568,-402 286.432,-402 286.432,-402 280.432,-402 274.432,-396 274.432,-390 274.432,-390 274.432,-378 274.432,-378 274.432,-372 280.432,-366 286.432,-366 286.432,-366 397.568,-366 397.568,-366 403.568,-366 409.568,-372 409.568,-378 409.568,-378 409.568,-390 409.568,-390 409.568,-396 403.568,-402 397.568,-402"/>
<text text-anchor="middle" x="342" y="-379.8" font-family="Helvetica,sans-Serif" font-size="14.00">regular_expression</text>
</g>
<!-- regular_expression&#45;&gt;ConstructCorpus -->
<g id="edge3" class="edge">
<title>regular_expression&#45;&gt;ConstructCorpus</title>
<path fill="none" stroke="black" d="M319.289,-365.831C308.204,-356.963 294.705,-346.164 282.715,-336.572"/>
<polygon fill="black" stroke="black" points="284.699,-333.677 274.704,-330.163 280.326,-339.143 284.699,-333.677"/>
</g>
<!-- num_iteration -->
<g id="node11" class="node">
<title>num_iteration</title>
<path fill="#ffffff" stroke="black" d="M389.327,-258C389.327,-258 312.673,-258 312.673,-258 306.673,-258 300.673,-252 300.673,-246 300.673,-246 300.673,-234 300.673,-234 300.673,-228 306.673,-222 312.673,-222 312.673,-222 389.327,-222 389.327,-222 395.327,-222 401.327,-228 401.327,-234 401.327,-234 401.327,-246 401.327,-246 401.327,-252 395.327,-258 389.327,-258"/>
<text text-anchor="middle" x="351" y="-235.8" font-family="Helvetica,sans-Serif" font-size="14.00">num_iteration</text>
</g>
<!-- num_iteration&#45;&gt;Train_LDA_Model -->
<g id="edge6" class="edge">
<title>num_iteration&#45;&gt;Train_LDA_Model</title>
<path fill="none" stroke="black" d="M326.018,-221.831C313.707,-212.878 298.689,-201.956 285.406,-192.295"/>
<polygon fill="black" stroke="black" points="287.12,-189.214 276.974,-186.163 283.003,-194.875 287.12,-189.214"/>
</g>
<!-- num_topics -->
<g id="node12" class="node">
<title>num_topics</title>
<path fill="#ffffff" stroke="black" d="M494.594,-258C494.594,-258 431.406,-258 431.406,-258 425.406,-258 419.406,-252 419.406,-246 419.406,-246 419.406,-234 419.406,-234 419.406,-228 425.406,-222 431.406,-222 431.406,-222 494.594,-222 494.594,-222 500.594,-222 506.594,-228 506.594,-234 506.594,-234 506.594,-246 506.594,-246 506.594,-252 500.594,-258 494.594,-258"/>
<text text-anchor="middle" x="463" y="-235.8" font-family="Helvetica,sans-Serif" font-size="14.00">num_topics</text>
</g>
<!-- num_topics&#45;&gt;Train_LDA_Model -->
<g id="edge7" class="edge">
<title>num_topics&#45;&gt;Train_LDA_Model</title>
<path fill="none" stroke="black" d="M419.281,-225.082C389.068,-214.772 348.418,-200.901 314.756,-189.414"/>
<polygon fill="black" stroke="black" points="315.603,-186.005 305.008,-186.088 313.342,-192.63 315.603,-186.005"/>
</g>
<!-- Static_text_inflow -->
<g id="node13" class="node">
<title>Static_text_inflow</title>
<ellipse fill="none" stroke="black" cx="403" cy="-449" rx="7" ry="7"/>
</g>
<!-- Static_text_inflow&#45;&gt;Static_text -->
<g id="edge12" class="edge">
<title>Static_text_inflow&#45;&gt;Static_text</title>
<path fill="none" stroke="black" d="M395.808,-448.365C374.83,-446.311 312.214,-438.734 265,-418 258.758,-415.259 252.485,-411.678 246.61,-407.872"/>
<polygon fill="black" stroke="black" points="248.566,-404.969 238.338,-402.205 244.61,-410.744 248.566,-404.969"/>
</g>
<!-- stopwords_inflow -->
<g id="node14" class="node">
<title>stopwords_inflow</title>
<ellipse fill="none" stroke="black" cx="467" cy="-449" rx="7" ry="7"/>
</g>
<!-- stopwords_inflow&#45;&gt;stopwords -->
<g id="edge13" class="edge">
<title>stopwords_inflow&#45;&gt;stopwords</title>
<path fill="none" stroke="black" d="M467,-441.796C467,-434.582 467,-423.016 467,-412.12"/>
<polygon fill="black" stroke="black" points="470.5,-412.041 467,-402.041 463.5,-412.041 470.5,-412.041"/>
</g>
<!-- regular_expression_inflow -->
<g id="node15" class="node">
<title>regular_expression_inflow</title>
<ellipse fill="none" stroke="black" cx="435" cy="-449" rx="7" ry="7"/>
</g>
<!-- regular_expression_inflow&#45;&gt;regular_expression -->
<g id="edge14" class="edge">
<title>regular_expression_inflow&#45;&gt;regular_expression</title>
<path fill="none" stroke="black" d="M431.721,-442.74C428.869,-437.743 424.359,-430.807 419,-426 411.097,-418.911 401.788,-412.568 392.424,-407.091"/>
<polygon fill="black" stroke="black" points="393.914,-403.914 383.475,-402.108 390.509,-410.031 393.914,-403.914"/>
</g>
<!-- num_iteration_inflow -->
<g id="node16" class="node">
<title>num_iteration_inflow</title>
<ellipse fill="none" stroke="black" cx="499" cy="-449" rx="7" ry="7"/>
</g>
<!-- num_iteration_inflow&#45;&gt;num_iteration -->
<g id="edge15" class="edge">
<title>num_iteration_inflow&#45;&gt;num_iteration</title>
<path fill="none" stroke="black" d="M503.351,-443.205C507.531,-437.245 513.563,-427.514 516,-418 521.736,-395.612 526.246,-386.716 516,-366 492.331,-318.145 440.812,-283.485 401.595,-262.772"/>
<polygon fill="black" stroke="black" points="402.916,-259.516 392.421,-258.06 399.717,-265.742 402.916,-259.516"/>
</g>
<!-- num_topics_inflow -->
<g id="node17" class="node">
<title>num_topics_inflow</title>
<ellipse fill="none" stroke="black" cx="531" cy="-449" rx="7" ry="7"/>
</g>
<!-- num_topics_inflow&#45;&gt;num_topics -->
<g id="edge16" class="edge">
<title>num_topics_inflow&#45;&gt;num_topics</title>
<path fill="none" stroke="black" d="M535.603,-443.248C540.027,-437.321 546.411,-427.615 549,-418 563.329,-364.784 575.666,-342.23 549,-294 541.443,-280.331 528.816,-269.656 515.535,-261.539"/>
<polygon fill="black" stroke="black" points="517.185,-258.451 506.759,-256.569 513.735,-264.542 517.185,-258.451"/>
</g>
</g>
</svg>
