<?xml version="1.0" encoding="UTF-8" standalone="no"?>
<!DOCTYPE svg PUBLIC "-//W3C//DTD SVG 1.1//EN"
 "http://www.w3.org/Graphics/SVG/1.1/DTD/svg11.dtd">
<!-- Generated by graphviz version 2.39.20160823.1445 (20160823.1445)
 -->
<!-- Title: yw_data_view Pages: 1 -->
<svg width="198pt" height="316pt"
 viewBox="0.00 0.00 198.00 316.00" xmlns="http://www.w3.org/2000/svg" xmlns:xlink="http://www.w3.org/1999/xlink">
<g id="graph0" class="graph" transform="scale(1 1) rotate(0) translate(4 312)">
<title>yw_data_view</title>
<polygon fill="white" stroke="transparent" points="-4,4 -4,-312 194,-312 194,4 -4,4"/>
<text text-anchor="middle" x="95" y="-289.6" font-family="Courier,monospace" font-size="18.00">topic_modeling</text>
<g id="clust1" class="cluster">
<title>cluster_workflow</title>
<polygon fill="none" stroke="black" stroke-width="2" points="8,-62 8,-274 182,-274 182,-62 8,-62"/>
</g>
<g id="clust2" class="cluster">
<title>cluster_workflow_inner</title>
<polygon fill="none" stroke="white" stroke-width="2" points="16,-70 16,-266 174,-266 174,-70 16,-70"/>
</g>
<g id="clust5" class="cluster">
<title>cluster_outflows</title>
<polygon fill="none" stroke="white" stroke-width="2" points="72,-8 72,-54 118,-54 118,-8 72,-8"/>
</g>
<g id="clust6" class="cluster">
<title>cluster_outflows_inner</title>
<polygon fill="none" stroke="white" stroke-width="2" points="80,-16 80,-46 110,-46 110,-16 80,-16"/>
</g>
<!-- Train_LDA_Model -->
<g id="node1" class="node">
<title>Train_LDA_Model</title>
<polygon fill="#ccffcc" stroke="black" points="166.021,-186 23.9795,-186 23.9795,-150 166.021,-150 166.021,-186"/>
<text text-anchor="middle" x="95" y="-163.8" font-family="Courier,monospace" font-size="14.00">Train_LDA_Model</text>
</g>
<!-- LDA_model -->
<g id="node3" class="node">
<title>LDA_model</title>
<path fill="#ffffcc" stroke="black" d="M127.651,-114C127.651,-114 62.3485,-114 62.3485,-114 56.3485,-114 50.3485,-108 50.3485,-102 50.3485,-102 50.3485,-90 50.3485,-90 50.3485,-84 56.3485,-78 62.3485,-78 62.3485,-78 127.651,-78 127.651,-78 133.651,-78 139.651,-84 139.651,-90 139.651,-90 139.651,-102 139.651,-102 139.651,-108 133.651,-114 127.651,-114"/>
<text text-anchor="middle" x="95" y="-91.8" font-family="Helvetica,sans-Serif" font-size="14.00">LDA_model</text>
</g>
<!-- Train_LDA_Model&#45;&gt;LDA_model -->
<g id="edge1" class="edge">
<title>Train_LDA_Model&#45;&gt;LDA_model</title>
<path fill="none" stroke="black" d="M95,-149.831C95,-142.131 95,-132.974 95,-124.417"/>
<polygon fill="black" stroke="black" points="98.5001,-124.413 95,-114.413 91.5001,-124.413 98.5001,-124.413"/>
</g>
<!-- dictionary -->
<g id="node2" class="node">
<title>dictionary</title>
<path fill="#ffffcc" stroke="black" d="M120.917,-258C120.917,-258 69.083,-258 69.083,-258 63.083,-258 57.083,-252 57.083,-246 57.083,-246 57.083,-234 57.083,-234 57.083,-228 63.083,-222 69.083,-222 69.083,-222 120.917,-222 120.917,-222 126.917,-222 132.917,-228 132.917,-234 132.917,-234 132.917,-246 132.917,-246 132.917,-252 126.917,-258 120.917,-258"/>
<text text-anchor="middle" x="95" y="-235.8" font-family="Helvetica,sans-Serif" font-size="14.00">dictionary</text>
</g>
<!-- dictionary&#45;&gt;Train_LDA_Model -->
<g id="edge2" class="edge">
<title>dictionary&#45;&gt;Train_LDA_Model</title>
<path fill="none" stroke="black" d="M95,-221.831C95,-214.131 95,-204.974 95,-196.417"/>
<polygon fill="black" stroke="black" points="98.5001,-196.413 95,-186.413 91.5001,-196.413 98.5001,-196.413"/>
</g>
<!-- LDA_model_outflow -->
<g id="node4" class="node">
<title>LDA_model_outflow</title>
<ellipse fill="none" stroke="black" cx="95" cy="-31" rx="7" ry="7"/>
</g>
<!-- LDA_model&#45;&gt;LDA_model_outflow -->
<g id="edge3" class="edge">
<title>LDA_model&#45;&gt;LDA_model_outflow</title>
<path fill="none" stroke="black" d="M95,-77.8939C95,-68.5967 95,-57.3301 95,-48.1707"/>
<polygon fill="black" stroke="black" points="98.5001,-48.0024 95,-38.0024 91.5001,-48.0025 98.5001,-48.0024"/>
</g>
</g>
</svg>
