<?xml version="1.0" encoding="UTF-8" standalone="no"?>
<!DOCTYPE svg PUBLIC "-//W3C//DTD SVG 1.1//EN"
 "http://www.w3.org/Graphics/SVG/1.1/DTD/svg11.dtd">
<!-- Generated by graphviz version 2.39.20160823.1445 (20160823.1445)
 -->
<!-- Title: yw_data_view Pages: 1 -->
<svg width="226pt" height="514pt"
 viewBox="0.00 0.00 226.00 514.00" xmlns="http://www.w3.org/2000/svg" xmlns:xlink="http://www.w3.org/1999/xlink">
<g id="graph0" class="graph" transform="scale(1 1) rotate(0) translate(4 510)">
<title>yw_data_view</title>
<polygon fill="white" stroke="transparent" points="-4,4 -4,-510 222,-510 222,4 -4,4"/>
<text text-anchor="middle" x="109" y="-487.6" font-family="Courier,monospace" font-size="18.00">topic_modeling</text>
<g id="clust1" class="cluster">
<title>cluster_workflow</title>
<polygon fill="none" stroke="black" stroke-width="2" points="8,-62 8,-418 210,-418 210,-62 8,-62"/>
</g>
<g id="clust2" class="cluster">
<title>cluster_workflow_inner</title>
<polygon fill="none" stroke="white" stroke-width="2" points="16,-70 16,-410 202,-410 202,-70 16,-70"/>
</g>
<g id="clust3" class="cluster">
<title>cluster_inflows</title>
<polygon fill="none" stroke="white" stroke-width="2" points="86,-426 86,-472 132,-472 132,-426 86,-426"/>
</g>
<g id="clust4" class="cluster">
<title>cluster_inflows_inner</title>
<polygon fill="none" stroke="white" stroke-width="2" points="94,-434 94,-464 124,-464 124,-434 94,-434"/>
</g>
<g id="clust5" class="cluster">
<title>cluster_outflows</title>
<polygon fill="none" stroke="white" stroke-width="2" points="63,-8 63,-54 141,-54 141,-8 63,-8"/>
</g>
<g id="clust6" class="cluster">
<title>cluster_outflows_inner</title>
<polygon fill="none" stroke="white" stroke-width="2" points="71,-16 71,-46 133,-46 133,-16 71,-16"/>
</g>
<!-- Train_LDA_Model -->
<g id="node1" class="node">
<title>Train_LDA_Model</title>
<polygon fill="#ccffcc" stroke="black" points="180.021,-186 37.9795,-186 37.9795,-150 180.021,-150 180.021,-186"/>
<text text-anchor="middle" x="109" y="-163.8" font-family="Courier,monospace" font-size="14.00">Train_LDA_Model</text>
</g>
<!-- LogFile -->
<g id="node3" class="node">
<title>LogFile</title>
<path fill="#ffffcc" stroke="black" d="M73.917,-114C73.917,-114 36.083,-114 36.083,-114 30.083,-114 24.083,-108 24.083,-102 24.083,-102 24.083,-90 24.083,-90 24.083,-84 30.083,-78 36.083,-78 36.083,-78 73.917,-78 73.917,-78 79.917,-78 85.917,-84 85.917,-90 85.917,-90 85.917,-102 85.917,-102 85.917,-108 79.917,-114 73.917,-114"/>
<text text-anchor="middle" x="55" y="-91.8" font-family="Helvetica,sans-Serif" font-size="14.00">LogFile</text>
</g>
<!-- Train_LDA_Model&#45;&gt;LogFile -->
<g id="edge4" class="edge">
<title>Train_LDA_Model&#45;&gt;LogFile</title>
<path fill="none" stroke="black" d="M95.3735,-149.831C89.154,-141.539 81.6678,-131.557 74.84,-122.453"/>
<polygon fill="black" stroke="black" points="77.61,-120.313 68.81,-114.413 72.01,-124.513 77.61,-120.313"/>
</g>
<!-- LDA_model -->
<g id="node7" class="node">
<title>LDA_model</title>
<path fill="#ffffcc" stroke="black" d="M181.651,-114C181.651,-114 116.349,-114 116.349,-114 110.349,-114 104.349,-108 104.349,-102 104.349,-102 104.349,-90 104.349,-90 104.349,-84 110.349,-78 116.349,-78 116.349,-78 181.651,-78 181.651,-78 187.651,-78 193.651,-84 193.651,-90 193.651,-90 193.651,-102 193.651,-102 193.651,-108 187.651,-114 181.651,-114"/>
<text text-anchor="middle" x="149" y="-91.8" font-family="Helvetica,sans-Serif" font-size="14.00">LDA_model</text>
</g>
<!-- Train_LDA_Model&#45;&gt;LDA_model -->
<g id="edge1" class="edge">
<title>Train_LDA_Model&#45;&gt;LDA_model</title>
<path fill="none" stroke="black" d="M119.094,-149.831C123.56,-141.792 128.907,-132.167 133.838,-123.292"/>
<polygon fill="black" stroke="black" points="136.973,-124.855 138.77,-114.413 130.854,-121.455 136.973,-124.855"/>
</g>
<!-- ConstructCorpus -->
<g id="node2" class="node">
<title>ConstructCorpus</title>
<polygon fill="#ccffcc" stroke="black" points="180.021,-330 37.9795,-330 37.9795,-294 180.021,-294 180.021,-330"/>
<text text-anchor="middle" x="109" y="-307.8" font-family="Courier,monospace" font-size="14.00">ConstructCorpus</text>
</g>
<!-- dictionary -->
<g id="node5" class="node">
<title>dictionary</title>
<path fill="#ffffcc" stroke="black" d="M94.917,-258C94.917,-258 43.083,-258 43.083,-258 37.083,-258 31.083,-252 31.083,-246 31.083,-246 31.083,-234 31.083,-234 31.083,-228 37.083,-222 43.083,-222 43.083,-222 94.917,-222 94.917,-222 100.917,-222 106.917,-228 106.917,-234 106.917,-234 106.917,-246 106.917,-246 106.917,-252 100.917,-258 94.917,-258"/>
<text text-anchor="middle" x="69" y="-235.8" font-family="Helvetica,sans-Serif" font-size="14.00">dictionary</text>
</g>
<!-- ConstructCorpus&#45;&gt;dictionary -->
<g id="edge3" class="edge">
<title>ConstructCorpus&#45;&gt;dictionary</title>
<path fill="none" stroke="black" d="M98.9063,-293.831C94.4403,-285.792 89.0925,-276.167 84.1621,-267.292"/>
<polygon fill="black" stroke="black" points="87.1456,-265.455 79.2296,-258.413 81.0265,-268.855 87.1456,-265.455"/>
</g>
<!-- Corpus -->
<g id="node6" class="node">
<title>Corpus</title>
<path fill="#ffffcc" stroke="black" d="M174.631,-258C174.631,-258 137.369,-258 137.369,-258 131.369,-258 125.369,-252 125.369,-246 125.369,-246 125.369,-234 125.369,-234 125.369,-228 131.369,-222 137.369,-222 137.369,-222 174.631,-222 174.631,-222 180.631,-222 186.631,-228 186.631,-234 186.631,-234 186.631,-246 186.631,-246 186.631,-252 180.631,-258 174.631,-258"/>
<text text-anchor="middle" x="156" y="-235.8" font-family="Helvetica,sans-Serif" font-size="14.00">Corpus</text>
</g>
<!-- ConstructCorpus&#45;&gt;Corpus -->
<g id="edge2" class="edge">
<title>ConstructCorpus&#45;&gt;Corpus</title>
<path fill="none" stroke="black" d="M120.86,-293.831C126.163,-285.708 132.524,-275.964 138.367,-267.012"/>
<polygon fill="black" stroke="black" points="141.445,-268.7 143.98,-258.413 135.583,-264.874 141.445,-268.7"/>
</g>
<!-- LogFile_outflow -->
<g id="node10" class="node">
<title>LogFile_outflow</title>
<ellipse fill="none" stroke="black" cx="86" cy="-31" rx="7" ry="7"/>
</g>
<!-- LogFile&#45;&gt;LogFile_outflow -->
<g id="edge10" class="edge">
<title>LogFile&#45;&gt;LogFile_outflow</title>
<path fill="none" stroke="black" d="M63.6352,-77.8939C68.3212,-68.0684 74.0562,-56.0435 78.5454,-46.6305"/>
<polygon fill="black" stroke="black" points="81.8166,-47.9021 82.9623,-37.3694 75.4984,-44.8888 81.8166,-47.9021"/>
</g>
<!-- Static_text -->
<g id="node4" class="node">
<title>Static_text</title>
<path fill="#ffffcc" stroke="black" d="M137.866,-402C137.866,-402 80.1339,-402 80.1339,-402 74.1339,-402 68.1339,-396 68.1339,-390 68.1339,-390 68.1339,-378 68.1339,-378 68.1339,-372 74.1339,-366 80.1339,-366 80.1339,-366 137.866,-366 137.866,-366 143.866,-366 149.866,-372 149.866,-378 149.866,-378 149.866,-390 149.866,-390 149.866,-396 143.866,-402 137.866,-402"/>
<text text-anchor="middle" x="109" y="-379.8" font-family="Helvetica,sans-Serif" font-size="14.00">Static_text</text>
</g>
<!-- Static_text&#45;&gt;ConstructCorpus -->
<g id="edge5" class="edge">
<title>Static_text&#45;&gt;ConstructCorpus</title>
<path fill="none" stroke="black" d="M109,-365.831C109,-358.131 109,-348.974 109,-340.417"/>
<polygon fill="black" stroke="black" points="112.5,-340.413 109,-330.413 105.5,-340.413 112.5,-340.413"/>
</g>
<!-- dictionary&#45;&gt;Train_LDA_Model -->
<g id="edge6" class="edge">
<title>dictionary&#45;&gt;Train_LDA_Model</title>
<path fill="none" stroke="black" d="M79.0937,-221.831C83.5597,-213.792 88.9075,-204.167 93.8379,-195.292"/>
<polygon fill="black" stroke="black" points="96.9735,-196.855 98.7704,-186.413 90.8544,-193.455 96.9735,-196.855"/>
</g>
<!-- Corpus&#45;&gt;Train_LDA_Model -->
<g id="edge7" class="edge">
<title>Corpus&#45;&gt;Train_LDA_Model</title>
<path fill="none" stroke="black" d="M144.14,-221.831C138.837,-213.708 132.476,-203.964 126.633,-195.012"/>
<polygon fill="black" stroke="black" points="129.417,-192.874 121.02,-186.413 123.555,-196.7 129.417,-192.874"/>
</g>
<!-- LDA_model_outflow -->
<g id="node9" class="node">
<title>LDA_model_outflow</title>
<ellipse fill="none" stroke="black" cx="118" cy="-31" rx="7" ry="7"/>
</g>
<!-- LDA_model&#45;&gt;LDA_model_outflow -->
<g id="edge9" class="edge">
<title>LDA_model&#45;&gt;LDA_model_outflow</title>
<path fill="none" stroke="black" d="M140.365,-77.8939C135.679,-68.0684 129.944,-56.0435 125.455,-46.6305"/>
<polygon fill="black" stroke="black" points="128.502,-44.8888 121.038,-37.3694 122.183,-47.9021 128.502,-44.8888"/>
</g>
<!-- Static_text_inflow -->
<g id="node8" class="node">
<title>Static_text_inflow</title>
<ellipse fill="none" stroke="black" cx="109" cy="-449" rx="7" ry="7"/>
</g>
<!-- Static_text_inflow&#45;&gt;Static_text -->
<g id="edge8" class="edge">
<title>Static_text_inflow&#45;&gt;Static_text</title>
<path fill="none" stroke="black" d="M109,-441.796C109,-434.582 109,-423.016 109,-412.12"/>
<polygon fill="black" stroke="black" points="112.5,-412.041 109,-402.041 105.5,-412.041 112.5,-412.041"/>
</g>
</g>
</svg>
