<?xml version="1.0" encoding="UTF-8" standalone="no"?>
<!DOCTYPE svg PUBLIC "-//W3C//DTD SVG 1.1//EN"
 "http://www.w3.org/Graphics/SVG/1.1/DTD/svg11.dtd">
<!-- Generated by graphviz version 2.39.20160823.1445 (20160823.1445)
 -->
<!-- Title: yw_data_view Pages: 1 -->
<svg width="212pt" height="514pt"
 viewBox="0.00 0.00 212.00 514.00" xmlns="http://www.w3.org/2000/svg" xmlns:xlink="http://www.w3.org/1999/xlink">
<g id="graph0" class="graph" transform="scale(1 1) rotate(0) translate(4 510)">
<title>yw_data_view</title>
<polygon fill="white" stroke="transparent" points="-4,4 -4,-510 208,-510 208,4 -4,4"/>
<text text-anchor="middle" x="102" y="-487.6" font-family="Courier,monospace" font-size="18.00">topic_modeling</text>
<g id="clust1" class="cluster">
<title>cluster_workflow</title>
<polygon fill="none" stroke="black" stroke-width="2" points="8,-62 8,-418 196,-418 196,-62 8,-62"/>
</g>
<g id="clust2" class="cluster">
<title>cluster_workflow_inner</title>
<polygon fill="none" stroke="white" stroke-width="2" points="16,-70 16,-410 188,-410 188,-70 16,-70"/>
</g>
<g id="clust3" class="cluster">
<title>cluster_inflows</title>
<polygon fill="none" stroke="white" stroke-width="2" points="79,-426 79,-472 125,-472 125,-426 79,-426"/>
</g>
<g id="clust4" class="cluster">
<title>cluster_inflows_inner</title>
<polygon fill="none" stroke="white" stroke-width="2" points="87,-434 87,-464 117,-464 117,-434 87,-434"/>
</g>
<g id="clust5" class="cluster">
<title>cluster_outflows</title>
<polygon fill="none" stroke="white" stroke-width="2" points="79,-8 79,-54 125,-54 125,-8 79,-8"/>
</g>
<g id="clust6" class="cluster">
<title>cluster_outflows_inner</title>
<polygon fill="none" stroke="white" stroke-width="2" points="87,-16 87,-46 117,-46 117,-16 87,-16"/>
</g>
<!-- Train_LDA_Model -->
<g id="node1" class="node">
<title>Train_LDA_Model</title>
<polygon fill="#ccffcc" stroke="black" points="173.021,-186 30.9795,-186 30.9795,-150 173.021,-150 173.021,-186"/>
<text text-anchor="middle" x="102" y="-163.8" font-family="Courier,monospace" font-size="14.00">Train_LDA_Model</text>
</g>
<!-- LDA_model -->
<g id="node6" class="node">
<title>LDA_model</title>
<path fill="#ffffcc" stroke="black" d="M134.651,-114C134.651,-114 69.3485,-114 69.3485,-114 63.3485,-114 57.3485,-108 57.3485,-102 57.3485,-102 57.3485,-90 57.3485,-90 57.3485,-84 63.3485,-78 69.3485,-78 69.3485,-78 134.651,-78 134.651,-78 140.651,-78 146.651,-84 146.651,-90 146.651,-90 146.651,-102 146.651,-102 146.651,-108 140.651,-114 134.651,-114"/>
<text text-anchor="middle" x="102" y="-91.8" font-family="Helvetica,sans-Serif" font-size="14.00">LDA_model</text>
</g>
<!-- Train_LDA_Model&#45;&gt;LDA_model -->
<g id="edge1" class="edge">
<title>Train_LDA_Model&#45;&gt;LDA_model</title>
<path fill="none" stroke="black" d="M102,-149.831C102,-142.131 102,-132.974 102,-124.417"/>
<polygon fill="black" stroke="black" points="105.5,-124.413 102,-114.413 98.5001,-124.413 105.5,-124.413"/>
</g>
<!-- ConstructCorpus -->
<g id="node2" class="node">
<title>ConstructCorpus</title>
<polygon fill="#ccffcc" stroke="black" points="173.021,-330 30.9795,-330 30.9795,-294 173.021,-294 173.021,-330"/>
<text text-anchor="middle" x="102" y="-307.8" font-family="Courier,monospace" font-size="14.00">ConstructCorpus</text>
</g>
<!-- dictionary -->
<g id="node4" class="node">
<title>dictionary</title>
<path fill="#ffffcc" stroke="black" d="M87.917,-258C87.917,-258 36.083,-258 36.083,-258 30.083,-258 24.083,-252 24.083,-246 24.083,-246 24.083,-234 24.083,-234 24.083,-228 30.083,-222 36.083,-222 36.083,-222 87.917,-222 87.917,-222 93.917,-222 99.917,-228 99.917,-234 99.917,-234 99.917,-246 99.917,-246 99.917,-252 93.917,-258 87.917,-258"/>
<text text-anchor="middle" x="62" y="-235.8" font-family="Helvetica,sans-Serif" font-size="14.00">dictionary</text>
</g>
<!-- ConstructCorpus&#45;&gt;dictionary -->
<g id="edge3" class="edge">
<title>ConstructCorpus&#45;&gt;dictionary</title>
<path fill="none" stroke="black" d="M91.9063,-293.831C87.4403,-285.792 82.0925,-276.167 77.1621,-267.292"/>
<polygon fill="black" stroke="black" points="80.1456,-265.455 72.2296,-258.413 74.0265,-268.855 80.1456,-265.455"/>
</g>
<!-- Corpus -->
<g id="node5" class="node">
<title>Corpus</title>
<path fill="#ffffcc" stroke="black" d="M167.631,-258C167.631,-258 130.369,-258 130.369,-258 124.369,-258 118.369,-252 118.369,-246 118.369,-246 118.369,-234 118.369,-234 118.369,-228 124.369,-222 130.369,-222 130.369,-222 167.631,-222 167.631,-222 173.631,-222 179.631,-228 179.631,-234 179.631,-234 179.631,-246 179.631,-246 179.631,-252 173.631,-258 167.631,-258"/>
<text text-anchor="middle" x="149" y="-235.8" font-family="Helvetica,sans-Serif" font-size="14.00">Corpus</text>
</g>
<!-- ConstructCorpus&#45;&gt;Corpus -->
<g id="edge2" class="edge">
<title>ConstructCorpus&#45;&gt;Corpus</title>
<path fill="none" stroke="black" d="M113.86,-293.831C119.163,-285.708 125.524,-275.964 131.367,-267.012"/>
<polygon fill="black" stroke="black" points="134.445,-268.7 136.98,-258.413 128.583,-264.874 134.445,-268.7"/>
</g>
<!-- Static_text -->
<g id="node3" class="node">
<title>Static_text</title>
<path fill="#ffffcc" stroke="black" d="M130.866,-402C130.866,-402 73.1339,-402 73.1339,-402 67.1339,-402 61.1339,-396 61.1339,-390 61.1339,-390 61.1339,-378 61.1339,-378 61.1339,-372 67.1339,-366 73.1339,-366 73.1339,-366 130.866,-366 130.866,-366 136.866,-366 142.866,-372 142.866,-378 142.866,-378 142.866,-390 142.866,-390 142.866,-396 136.866,-402 130.866,-402"/>
<text text-anchor="middle" x="102" y="-379.8" font-family="Helvetica,sans-Serif" font-size="14.00">Static_text</text>
</g>
<!-- Static_text&#45;&gt;ConstructCorpus -->
<g id="edge4" class="edge">
<title>Static_text&#45;&gt;ConstructCorpus</title>
<path fill="none" stroke="black" d="M102,-365.831C102,-358.131 102,-348.974 102,-340.417"/>
<polygon fill="black" stroke="black" points="105.5,-340.413 102,-330.413 98.5001,-340.413 105.5,-340.413"/>
</g>
<!-- dictionary&#45;&gt;Train_LDA_Model -->
<g id="edge5" class="edge">
<title>dictionary&#45;&gt;Train_LDA_Model</title>
<path fill="none" stroke="black" d="M72.0937,-221.831C76.5597,-213.792 81.9075,-204.167 86.8379,-195.292"/>
<polygon fill="black" stroke="black" points="89.9735,-196.855 91.7704,-186.413 83.8544,-193.455 89.9735,-196.855"/>
</g>
<!-- Corpus&#45;&gt;Train_LDA_Model -->
<g id="edge6" class="edge">
<title>Corpus&#45;&gt;Train_LDA_Model</title>
<path fill="none" stroke="black" d="M137.14,-221.831C131.837,-213.708 125.476,-203.964 119.633,-195.012"/>
<polygon fill="black" stroke="black" points="122.417,-192.874 114.02,-186.413 116.555,-196.7 122.417,-192.874"/>
</g>
<!-- LDA_model_outflow -->
<g id="node8" class="node">
<title>LDA_model_outflow</title>
<ellipse fill="none" stroke="black" cx="102" cy="-31" rx="7" ry="7"/>
</g>
<!-- LDA_model&#45;&gt;LDA_model_outflow -->
<g id="edge8" class="edge">
<title>LDA_model&#45;&gt;LDA_model_outflow</title>
<path fill="none" stroke="black" d="M102,-77.8939C102,-68.5967 102,-57.3301 102,-48.1707"/>
<polygon fill="black" stroke="black" points="105.5,-48.0024 102,-38.0024 98.5001,-48.0025 105.5,-48.0024"/>
</g>
<!-- Static_text_inflow -->
<g id="node7" class="node">
<title>Static_text_inflow</title>
<ellipse fill="none" stroke="black" cx="102" cy="-449" rx="7" ry="7"/>
</g>
<!-- Static_text_inflow&#45;&gt;Static_text -->
<g id="edge7" class="edge">
<title>Static_text_inflow&#45;&gt;Static_text</title>
<path fill="none" stroke="black" d="M102,-441.796C102,-434.582 102,-423.016 102,-412.12"/>
<polygon fill="black" stroke="black" points="105.5,-412.041 102,-402.041 98.5001,-412.041 105.5,-412.041"/>
</g>
</g>
</svg>
