<?xml version="1.0" encoding="UTF-8" standalone="no"?>
<!DOCTYPE svg PUBLIC "-//W3C//DTD SVG 1.1//EN"
 "http://www.w3.org/Graphics/SVG/1.1/DTD/svg11.dtd">
<!-- Generated by graphviz version 2.39.20160823.1445 (20160823.1445)
 -->
<!-- Title: yw_data_view Pages: 1 -->
<svg width="226pt" height="316pt"
 viewBox="0.00 0.00 226.00 316.00" xmlns="http://www.w3.org/2000/svg" xmlns:xlink="http://www.w3.org/1999/xlink">
<g id="graph0" class="graph" transform="scale(1 1) rotate(0) translate(4 312)">
<title>yw_data_view</title>
<polygon fill="white" stroke="transparent" points="-4,4 -4,-312 222,-312 222,4 -4,4"/>
<text text-anchor="middle" x="109" y="-289.6" font-family="Courier,monospace" font-size="18.00">topic_modeling</text>
<g id="clust1" class="cluster">
<title>cluster_workflow</title>
<polygon fill="none" stroke="black" stroke-width="2" points="8,-62 8,-274 210,-274 210,-62 8,-62"/>
</g>
<g id="clust2" class="cluster">
<title>cluster_workflow_inner</title>
<polygon fill="none" stroke="white" stroke-width="2" points="16,-70 16,-266 202,-266 202,-70 16,-70"/>
</g>
<g id="clust5" class="cluster">
<title>cluster_outflows</title>
<polygon fill="none" stroke="white" stroke-width="2" points="63,-8 63,-54 141,-54 141,-8 63,-8"/>
</g>
<g id="clust6" class="cluster">
<title>cluster_outflows_inner</title>
<polygon fill="none" stroke="white" stroke-width="2" points="71,-16 71,-46 133,-46 133,-16 71,-16"/>
</g>
<!-- Train_LDA_Model -->
<g id="node1" class="node">
<title>Train_LDA_Model</title>
<polygon fill="#ccffcc" stroke="black" points="180.021,-186 37.9795,-186 37.9795,-150 180.021,-150 180.021,-186"/>
<text text-anchor="middle" x="109" y="-163.8" font-family="Courier,monospace" font-size="14.00">Train_LDA_Model</text>
</g>
<!-- LogFile -->
<g id="node2" class="node">
<title>LogFile</title>
<path fill="#ffffcc" stroke="black" d="M73.917,-114C73.917,-114 36.083,-114 36.083,-114 30.083,-114 24.083,-108 24.083,-102 24.083,-102 24.083,-90 24.083,-90 24.083,-84 30.083,-78 36.083,-78 36.083,-78 73.917,-78 73.917,-78 79.917,-78 85.917,-84 85.917,-90 85.917,-90 85.917,-102 85.917,-102 85.917,-108 79.917,-114 73.917,-114"/>
<text text-anchor="middle" x="55" y="-91.8" font-family="Helvetica,sans-Serif" font-size="14.00">LogFile</text>
</g>
<!-- Train_LDA_Model&#45;&gt;LogFile -->
<g id="edge2" class="edge">
<title>Train_LDA_Model&#45;&gt;LogFile</title>
<path fill="none" stroke="black" d="M95.3735,-149.831C89.154,-141.539 81.6678,-131.557 74.84,-122.453"/>
<polygon fill="black" stroke="black" points="77.61,-120.313 68.81,-114.413 72.01,-124.513 77.61,-120.313"/>
</g>
<!-- LDA_model -->
<g id="node4" class="node">
<title>LDA_model</title>
<path fill="#ffffcc" stroke="black" d="M181.651,-114C181.651,-114 116.349,-114 116.349,-114 110.349,-114 104.349,-108 104.349,-102 104.349,-102 104.349,-90 104.349,-90 104.349,-84 110.349,-78 116.349,-78 116.349,-78 181.651,-78 181.651,-78 187.651,-78 193.651,-84 193.651,-90 193.651,-90 193.651,-102 193.651,-102 193.651,-108 187.651,-114 181.651,-114"/>
<text text-anchor="middle" x="149" y="-91.8" font-family="Helvetica,sans-Serif" font-size="14.00">LDA_model</text>
</g>
<!-- Train_LDA_Model&#45;&gt;LDA_model -->
<g id="edge1" class="edge">
<title>Train_LDA_Model&#45;&gt;LDA_model</title>
<path fill="none" stroke="black" d="M119.094,-149.831C123.56,-141.792 128.907,-132.167 133.838,-123.292"/>
<polygon fill="black" stroke="black" points="136.973,-124.855 138.77,-114.413 130.854,-121.455 136.973,-124.855"/>
</g>
<!-- LogFile_outflow -->
<g id="node6" class="node">
<title>LogFile_outflow</title>
<ellipse fill="none" stroke="black" cx="86" cy="-31" rx="7" ry="7"/>
</g>
<!-- LogFile&#45;&gt;LogFile_outflow -->
<g id="edge5" class="edge">
<title>LogFile&#45;&gt;LogFile_outflow</title>
<path fill="none" stroke="black" d="M63.6352,-77.8939C68.3212,-68.0684 74.0562,-56.0435 78.5454,-46.6305"/>
<polygon fill="black" stroke="black" points="81.8166,-47.9021 82.9623,-37.3694 75.4984,-44.8888 81.8166,-47.9021"/>
</g>
<!-- Corpus -->
<g id="node3" class="node">
<title>Corpus</title>
<path fill="#ffffcc" stroke="black" d="M127.631,-258C127.631,-258 90.369,-258 90.369,-258 84.369,-258 78.369,-252 78.369,-246 78.369,-246 78.369,-234 78.369,-234 78.369,-228 84.369,-222 90.369,-222 90.369,-222 127.631,-222 127.631,-222 133.631,-222 139.631,-228 139.631,-234 139.631,-234 139.631,-246 139.631,-246 139.631,-252 133.631,-258 127.631,-258"/>
<text text-anchor="middle" x="109" y="-235.8" font-family="Helvetica,sans-Serif" font-size="14.00">Corpus</text>
</g>
<!-- Corpus&#45;&gt;Train_LDA_Model -->
<g id="edge3" class="edge">
<title>Corpus&#45;&gt;Train_LDA_Model</title>
<path fill="none" stroke="black" d="M109,-221.831C109,-214.131 109,-204.974 109,-196.417"/>
<polygon fill="black" stroke="black" points="112.5,-196.413 109,-186.413 105.5,-196.413 112.5,-196.413"/>
</g>
<!-- LDA_model_outflow -->
<g id="node5" class="node">
<title>LDA_model_outflow</title>
<ellipse fill="none" stroke="black" cx="118" cy="-31" rx="7" ry="7"/>
</g>
<!-- LDA_model&#45;&gt;LDA_model_outflow -->
<g id="edge4" class="edge">
<title>LDA_model&#45;&gt;LDA_model_outflow</title>
<path fill="none" stroke="black" d="M140.365,-77.8939C135.679,-68.0684 129.944,-56.0435 125.455,-46.6305"/>
<polygon fill="black" stroke="black" points="128.502,-44.8888 121.038,-37.3694 122.183,-47.9021 128.502,-44.8888"/>
</g>
</g>
</svg>
