<?xml version="1.0" encoding="UTF-8" standalone="no"?>
<!DOCTYPE svg PUBLIC "-//W3C//DTD SVG 1.1//EN"
 "http://www.w3.org/Graphics/SVG/1.1/DTD/svg11.dtd">
<!-- Generated by graphviz version 2.39.20160823.1445 (20160823.1445)
 -->
<!-- Title: yw_data_view Pages: 1 -->
<svg width="517pt" height="517pt"
 viewBox="0.00 0.00 517.00 517.00" xmlns="http://www.w3.org/2000/svg" xmlns:xlink="http://www.w3.org/1999/xlink">
<g id="graph0" class="graph" transform="scale(1 1) rotate(0) translate(4 513)">
<title>yw_data_view</title>
<polygon fill="white" stroke="transparent" points="-4,4 -4,-513 513,-513 513,4 -4,4"/>
<text text-anchor="middle" x="254.5" y="-490.6" font-family="Courier,monospace" font-size="18.00">topic_modeling</text>
<g id="clust1" class="cluster">
<title>cluster_workflow</title>
<polygon fill="none" stroke="black" stroke-width="2" points="8,-62 8,-421 459,-421 459,-62 8,-62"/>
</g>
<g id="clust2" class="cluster">
<title>cluster_workflow_inner</title>
<polygon fill="none" stroke="white" stroke-width="2" points="16,-70 16,-413 451,-413 451,-70 16,-70"/>
</g>
<g id="clust3" class="cluster">
<title>cluster_inflows</title>
<polygon fill="none" stroke="white" stroke-width="2" points="327,-429 327,-475 501,-475 501,-429 327,-429"/>
</g>
<g id="clust4" class="cluster">
<title>cluster_inflows_inner</title>
<polygon fill="none" stroke="white" stroke-width="2" points="335,-437 335,-467 493,-467 493,-437 335,-437"/>
</g>
<g id="clust5" class="cluster">
<title>cluster_outflows</title>
<polygon fill="none" stroke="white" stroke-width="2" points="102,-8 102,-54 180,-54 180,-8 102,-8"/>
</g>
<g id="clust6" class="cluster">
<title>cluster_outflows_inner</title>
<polygon fill="none" stroke="white" stroke-width="2" points="110,-16 110,-46 172,-46 172,-16 110,-16"/>
</g>
<!-- initialize_run -->
<g id="node1" class="node">
<title>initialize_run</title>
<polygon fill="#ccffcc" stroke="black" points="157.62,-404.5 24.3803,-404.5 24.3803,-368.5 157.62,-368.5 157.62,-404.5"/>
<text text-anchor="middle" x="91" y="-382.3" font-family="Courier,monospace" font-size="14.00">initialize_run</text>
</g>
<!-- run_log -->
<g id="node7" class="node">
<title>run_log</title>
<path fill="#ffe4b5" stroke="black" d="M73.2952,-295.5C73.2952,-295.5 124.705,-295.5 124.705,-295.5 130.705,-295.5 136.705,-301.5 136.705,-307.5 136.705,-307.5 136.705,-319.5 136.705,-319.5 136.705,-325.5 130.705,-331.5 124.705,-331.5 124.705,-331.5 73.2952,-331.5 73.2952,-331.5 67.2952,-331.5 61.2952,-325.5 61.2952,-319.5 61.2952,-319.5 61.2952,-307.5 61.2952,-307.5 61.2952,-301.5 67.2952,-295.5 73.2952,-295.5"/>
<text text-anchor="middle" x="99" y="-319.8" font-family="Courier,monospace" font-weight="bold" font-size="9.00">run_log</text>
<polyline fill="none" stroke="black" points="61.2952,-313.5 136.705,-313.5 "/>
<text text-anchor="start" x="69.2952" y="-301.8" font-family="Courier,monospace" font-weight="bold" font-size="9.00">run_log.log</text>
</g>
<!-- initialize_run&#45;&gt;run_log -->
<g id="edge8" class="edge">
<title>initialize_run&#45;&gt;run_log</title>
<path fill="none" stroke="black" d="M92.9775,-368.455C93.8622,-360.383 94.9259,-350.676 95.9116,-341.682"/>
<polygon fill="black" stroke="black" points="99.4072,-341.912 97.0175,-331.59 92.4489,-341.15 99.4072,-341.912"/>
</g>
<!-- Train_LDA_Model -->
<g id="node2" class="node">
<title>Train_LDA_Model</title>
<polygon fill="#ccffcc" stroke="black" points="319.021,-187 176.979,-187 176.979,-151 319.021,-151 319.021,-187"/>
<text text-anchor="middle" x="248" y="-164.8" font-family="Courier,monospace" font-size="14.00">Train_LDA_Model</text>
</g>
<!-- LDA_model -->
<g id="node8" class="node">
<title>LDA_model</title>
<path fill="#ffe4b5" stroke="black" d="M180.894,-78.5C180.894,-78.5 243.106,-78.5 243.106,-78.5 249.106,-78.5 255.106,-84.5 255.106,-90.5 255.106,-90.5 255.106,-102.5 255.106,-102.5 255.106,-108.5 249.106,-114.5 243.106,-114.5 243.106,-114.5 180.894,-114.5 180.894,-114.5 174.894,-114.5 168.894,-108.5 168.894,-102.5 168.894,-102.5 168.894,-90.5 168.894,-90.5 168.894,-84.5 174.894,-78.5 180.894,-78.5"/>
<text text-anchor="middle" x="212" y="-102.8" font-family="Courier,monospace" font-weight="bold" font-size="9.00">LDA_model</text>
<polyline fill="none" stroke="black" points="168.894,-96.5 255.106,-96.5 "/>
<text text-anchor="start" x="176.894" y="-84.8" font-family="Courier,monospace" font-weight="bold" font-size="9.00">LDA_model.txt</text>
</g>
<!-- Train_LDA_Model&#45;&gt;LDA_model -->
<g id="edge11" class="edge">
<title>Train_LDA_Model&#45;&gt;LDA_model</title>
<path fill="none" stroke="black" d="M238.916,-150.705C234.834,-142.486 229.935,-132.619 225.441,-123.569"/>
<polygon fill="black" stroke="black" points="228.539,-121.938 220.957,-114.538 222.269,-125.051 228.539,-121.938"/>
</g>
<!-- ConstructCorpus -->
<g id="node3" class="node">
<title>ConstructCorpus</title>
<polygon fill="#ccffcc" stroke="black" points="319.021,-331.5 176.979,-331.5 176.979,-295.5 319.021,-295.5 319.021,-331.5"/>
<text text-anchor="middle" x="248" y="-309.3" font-family="Courier,monospace" font-size="14.00">ConstructCorpus</text>
</g>
<!-- dictionary -->
<g id="node5" class="node">
<title>dictionary</title>
<path fill="#ffffcc" stroke="black" d="M191.02,-259C191.02,-259 160.98,-259 160.98,-259 154.98,-259 148.98,-253 148.98,-247 148.98,-247 148.98,-235 148.98,-235 148.98,-229 154.98,-223 160.98,-223 160.98,-223 191.02,-223 191.02,-223 197.02,-223 203.02,-229 203.02,-235 203.02,-235 203.02,-247 203.02,-247 203.02,-253 197.02,-259 191.02,-259"/>
<text text-anchor="middle" x="176" y="-238.3" font-family="Helvetica,sans-Serif" font-size="9.00">dictionary</text>
</g>
<!-- ConstructCorpus&#45;&gt;dictionary -->
<g id="edge9" class="edge">
<title>ConstructCorpus&#45;&gt;dictionary</title>
<path fill="none" stroke="black" d="M229.831,-295.205C221.153,-286.467 210.626,-275.866 201.19,-266.365"/>
<polygon fill="black" stroke="black" points="203.443,-263.667 193.913,-259.038 198.477,-268.6 203.443,-263.667"/>
</g>
<!-- Corpus -->
<g id="node6" class="node">
<title>Corpus</title>
<path fill="#ffffcc" stroke="black" d="M263,-259C263,-259 233,-259 233,-259 227,-259 221,-253 221,-247 221,-247 221,-235 221,-235 221,-229 227,-223 233,-223 233,-223 263,-223 263,-223 269,-223 275,-229 275,-235 275,-235 275,-247 275,-247 275,-253 269,-259 263,-259"/>
<text text-anchor="middle" x="248" y="-238.3" font-family="Helvetica,sans-Serif" font-size="9.00">Corpus</text>
</g>
<!-- ConstructCorpus&#45;&gt;Corpus -->
<g id="edge10" class="edge">
<title>ConstructCorpus&#45;&gt;Corpus</title>
<path fill="none" stroke="black" d="M248,-295.205C248,-287.332 248,-277.947 248,-269.217"/>
<polygon fill="black" stroke="black" points="251.5,-269.038 248,-259.038 244.5,-269.038 251.5,-269.038"/>
</g>
<!-- Static_text -->
<g id="node4" class="node">
<title>Static_text</title>
<path fill="#ffe4b5" stroke="black" d="M187.595,-368.5C187.595,-368.5 244.405,-368.5 244.405,-368.5 250.405,-368.5 256.405,-374.5 256.405,-380.5 256.405,-380.5 256.405,-392.5 256.405,-392.5 256.405,-398.5 250.405,-404.5 244.405,-404.5 244.405,-404.5 187.595,-404.5 187.595,-404.5 181.595,-404.5 175.595,-398.5 175.595,-392.5 175.595,-392.5 175.595,-380.5 175.595,-380.5 175.595,-374.5 181.595,-368.5 187.595,-368.5"/>
<text text-anchor="middle" x="216" y="-392.8" font-family="Courier,monospace" font-weight="bold" font-size="9.00">Static_text</text>
<polyline fill="none" stroke="black" points="175.595,-386.5 256.405,-386.5 "/>
<text text-anchor="start" x="183.595" y="-374.8" font-family="Courier,monospace" font-weight="bold" font-size="9.00">news2012.txt</text>
</g>
<!-- Static_text&#45;&gt;ConstructCorpus -->
<g id="edge1" class="edge">
<title>Static_text&#45;&gt;ConstructCorpus</title>
<path fill="none" stroke="black" d="M223.91,-368.455C227.564,-360.12 231.982,-350.042 236.031,-340.804"/>
<polygon fill="black" stroke="black" points="239.261,-342.154 240.07,-331.59 232.85,-339.344 239.261,-342.154"/>
</g>
<!-- dictionary&#45;&gt;Train_LDA_Model -->
<g id="edge4" class="edge">
<title>dictionary&#45;&gt;Train_LDA_Model</title>
<path fill="none" stroke="black" d="M194.169,-222.831C202.715,-214.285 213.056,-203.944 222.38,-194.62"/>
<polygon fill="black" stroke="black" points="224.991,-196.959 229.587,-187.413 220.041,-192.009 224.991,-196.959"/>
</g>
<!-- Corpus&#45;&gt;Train_LDA_Model -->
<g id="edge5" class="edge">
<title>Corpus&#45;&gt;Train_LDA_Model</title>
<path fill="none" stroke="black" d="M248,-222.831C248,-215.131 248,-205.974 248,-197.417"/>
<polygon fill="black" stroke="black" points="251.5,-197.413 248,-187.413 244.5,-197.413 251.5,-197.413"/>
</g>
<!-- run_log_outflow -->
<g id="node19" class="node">
<title>run_log_outflow</title>
<ellipse fill="none" stroke="black" cx="125" cy="-31" rx="7" ry="7"/>
</g>
<!-- run_log&#45;&gt;run_log_outflow -->
<g id="edge18" class="edge">
<title>run_log&#45;&gt;run_log_outflow</title>
<path fill="none" stroke="black" d="M100.666,-295.399C105.377,-244.214 118.752,-98.8898 123.391,-48.4784"/>
<polygon fill="black" stroke="black" points="126.899,-48.5603 124.33,-38.2816 119.928,-47.9187 126.899,-48.5603"/>
</g>
<!-- LDA_model_outflow -->
<g id="node18" class="node">
<title>LDA_model_outflow</title>
<ellipse fill="none" stroke="black" cx="157" cy="-31" rx="7" ry="7"/>
</g>
<!-- LDA_model&#45;&gt;LDA_model_outflow -->
<g id="edge17" class="edge">
<title>LDA_model&#45;&gt;LDA_model_outflow</title>
<path fill="none" stroke="black" d="M196.679,-78.2546C187.627,-67.4735 176.367,-54.0644 168.157,-44.2871"/>
<polygon fill="black" stroke="black" points="170.737,-41.9162 161.626,-36.5087 165.376,-46.4176 170.737,-41.9162"/>
</g>
<!-- stopwords -->
<g id="node9" class="node">
<title>stopwords</title>
<path fill="#ffffff" stroke="black" d="M430.519,-404.5C430.519,-404.5 397.481,-404.5 397.481,-404.5 391.481,-404.5 385.481,-398.5 385.481,-392.5 385.481,-392.5 385.481,-380.5 385.481,-380.5 385.481,-374.5 391.481,-368.5 397.481,-368.5 397.481,-368.5 430.519,-368.5 430.519,-368.5 436.519,-368.5 442.519,-374.5 442.519,-380.5 442.519,-380.5 442.519,-392.5 442.519,-392.5 442.519,-398.5 436.519,-404.5 430.519,-404.5"/>
<text text-anchor="middle" x="414" y="-383.8" font-family="Helvetica,sans-Serif" font-size="9.00">stopwords</text>
</g>
<!-- stopwords&#45;&gt;ConstructCorpus -->
<g id="edge2" class="edge">
<title>stopwords&#45;&gt;ConstructCorpus</title>
<path fill="none" stroke="black" d="M385.44,-372.404C382.265,-370.895 379.071,-369.4 376,-368 351.663,-356.903 324.429,-345.209 301.359,-335.51"/>
<polygon fill="black" stroke="black" points="302.654,-332.258 292.078,-331.621 299.949,-338.714 302.654,-332.258"/>
</g>
<!-- regular_expression -->
<g id="node10" class="node">
<title>regular_expression</title>
<path fill="#ffffff" stroke="black" d="M355.045,-404.5C355.045,-404.5 286.955,-404.5 286.955,-404.5 280.955,-404.5 274.955,-398.5 274.955,-392.5 274.955,-392.5 274.955,-380.5 274.955,-380.5 274.955,-374.5 280.955,-368.5 286.955,-368.5 286.955,-368.5 355.045,-368.5 355.045,-368.5 361.045,-368.5 367.045,-374.5 367.045,-380.5 367.045,-380.5 367.045,-392.5 367.045,-392.5 367.045,-398.5 361.045,-404.5 355.045,-404.5"/>
<text text-anchor="middle" x="321" y="-383.8" font-family="Helvetica,sans-Serif" font-size="9.00">regular_expression</text>
</g>
<!-- regular_expression&#45;&gt;ConstructCorpus -->
<g id="edge3" class="edge">
<title>regular_expression&#45;&gt;ConstructCorpus</title>
<path fill="none" stroke="black" d="M302.955,-368.455C294.005,-359.505 283.047,-348.547 273.277,-338.777"/>
<polygon fill="black" stroke="black" points="275.636,-336.187 266.09,-331.59 270.687,-341.136 275.636,-336.187"/>
</g>
<!-- num_iteration -->
<g id="node11" class="node">
<title>num_iteration</title>
<path fill="#ffffff" stroke="black" d="M351.033,-259C351.033,-259 304.967,-259 304.967,-259 298.967,-259 292.967,-253 292.967,-247 292.967,-247 292.967,-235 292.967,-235 292.967,-229 298.967,-223 304.967,-223 304.967,-223 351.033,-223 351.033,-223 357.033,-223 363.033,-229 363.033,-235 363.033,-235 363.033,-247 363.033,-247 363.033,-253 357.033,-259 351.033,-259"/>
<text text-anchor="middle" x="328" y="-238.3" font-family="Helvetica,sans-Serif" font-size="9.00">num_iteration</text>
</g>
<!-- num_iteration&#45;&gt;Train_LDA_Model -->
<g id="edge6" class="edge">
<title>num_iteration&#45;&gt;Train_LDA_Model</title>
<path fill="none" stroke="black" d="M307.813,-222.831C298.149,-214.134 286.42,-203.578 275.918,-194.127"/>
<polygon fill="black" stroke="black" points="277.955,-191.251 268.181,-187.163 273.272,-196.454 277.955,-191.251"/>
</g>
<!-- num_topics -->
<g id="node12" class="node">
<title>num_topics</title>
<path fill="#ffffff" stroke="black" d="M431.024,-259C431.024,-259 392.976,-259 392.976,-259 386.976,-259 380.976,-253 380.976,-247 380.976,-247 380.976,-235 380.976,-235 380.976,-229 386.976,-223 392.976,-223 392.976,-223 431.024,-223 431.024,-223 437.024,-223 443.024,-229 443.024,-235 443.024,-235 443.024,-247 443.024,-247 443.024,-253 437.024,-259 431.024,-259"/>
<text text-anchor="middle" x="412" y="-238.3" font-family="Helvetica,sans-Serif" font-size="9.00">num_topics</text>
</g>
<!-- num_topics&#45;&gt;Train_LDA_Model -->
<g id="edge7" class="edge">
<title>num_topics&#45;&gt;Train_LDA_Model</title>
<path fill="none" stroke="black" d="M380.573,-226.815C377.677,-225.52 374.785,-224.233 372,-223 348.141,-212.437 321.63,-200.869 299.266,-191.16"/>
<polygon fill="black" stroke="black" points="300.522,-187.889 289.955,-187.12 297.736,-194.311 300.522,-187.889"/>
</g>
<!-- Static_text_inflow -->
<g id="node13" class="node">
<title>Static_text_inflow</title>
<ellipse fill="none" stroke="black" cx="350" cy="-452" rx="7" ry="7"/>
</g>
<!-- Static_text_inflow&#45;&gt;Static_text -->
<g id="edge12" class="edge">
<title>Static_text_inflow&#45;&gt;Static_text</title>
<path fill="none" stroke="black" d="M343.225,-450.131C328.628,-445.969 293.318,-435.179 266,-421 259.962,-417.866 253.793,-414.122 247.942,-410.273"/>
<polygon fill="black" stroke="black" points="249.883,-407.36 239.649,-404.618 245.939,-413.143 249.883,-407.36"/>
</g>
<!-- stopwords_inflow -->
<g id="node14" class="node">
<title>stopwords_inflow</title>
<ellipse fill="none" stroke="black" cx="414" cy="-452" rx="7" ry="7"/>
</g>
<!-- stopwords_inflow&#45;&gt;stopwords -->
<g id="edge13" class="edge">
<title>stopwords_inflow&#45;&gt;stopwords</title>
<path fill="none" stroke="black" d="M414,-444.99C414,-437.738 414,-425.935 414,-414.824"/>
<polygon fill="black" stroke="black" points="417.5,-414.555 414,-404.555 410.5,-414.555 417.5,-414.555"/>
</g>
<!-- regular_expression_inflow -->
<g id="node15" class="node">
<title>regular_expression_inflow</title>
<ellipse fill="none" stroke="black" cx="382" cy="-452" rx="7" ry="7"/>
</g>
<!-- regular_expression_inflow&#45;&gt;regular_expression -->
<g id="edge14" class="edge">
<title>regular_expression_inflow&#45;&gt;regular_expression</title>
<path fill="none" stroke="black" d="M378.117,-445.693C375.062,-440.922 370.57,-434.308 366,-429 360.987,-423.178 355.263,-417.292 349.618,-411.833"/>
<polygon fill="black" stroke="black" points="351.721,-409.007 342.042,-404.7 346.923,-414.103 351.721,-409.007"/>
</g>
<!-- num_iteration_inflow -->
<g id="node16" class="node">
<title>num_iteration_inflow</title>
<ellipse fill="none" stroke="black" cx="446" cy="-452" rx="7" ry="7"/>
</g>
<!-- num_iteration_inflow&#45;&gt;num_iteration -->
<g id="edge15" class="edge">
<title>num_iteration_inflow&#45;&gt;num_iteration</title>
<path fill="none" stroke="black" d="M448.466,-445.147C453.358,-430.398 462.918,-394.811 452,-368 434.259,-324.435 393.587,-287.669 363.638,-265.083"/>
<polygon fill="black" stroke="black" points="365.632,-262.204 355.503,-259.095 361.482,-267.842 365.632,-262.204"/>
</g>
<!-- num_topics_inflow -->
<g id="node17" class="node">
<title>num_topics_inflow</title>
<ellipse fill="none" stroke="black" cx="478" cy="-452" rx="7" ry="7"/>
</g>
<!-- num_topics_inflow&#45;&gt;num_topics -->
<g id="edge16" class="edge">
<title>num_topics_inflow&#45;&gt;num_topics</title>
<path fill="none" stroke="black" d="M480.513,-445.239C488.521,-422.516 511.407,-347.381 485,-295 480.928,-286.924 465.84,-275.238 450.429,-264.801"/>
<polygon fill="black" stroke="black" points="452.173,-261.759 441.902,-259.162 448.312,-267.598 452.173,-261.759"/>
</g>
</g>
</svg>
