<?xml version="1.0" encoding="UTF-8" standalone="no"?>
<!DOCTYPE svg PUBLIC "-//W3C//DTD SVG 1.1//EN"
 "http://www.w3.org/Graphics/SVG/1.1/DTD/svg11.dtd">
<!-- Generated by graphviz version 2.39.20160823.1445 (20160823.1445)
 -->
<!-- Title: yw_data_view Pages: 1 -->
<svg width="190pt" height="245pt"
 viewBox="0.00 0.00 190.00 245.00" xmlns="http://www.w3.org/2000/svg" xmlns:xlink="http://www.w3.org/1999/xlink">
<g id="graph0" class="graph" transform="scale(1 1) rotate(0) translate(4 241)">
<title>yw_data_view</title>
<polygon fill="white" stroke="transparent" points="-4,4 -4,-241 186,-241 186,4 -4,4"/>
<text text-anchor="middle" x="91" y="-218.6" font-family="Courier,monospace" font-size="18.00">topic_modeling</text>
<g id="clust1" class="cluster">
<title>cluster_workflow</title>
<polygon fill="none" stroke="black" stroke-width="2" points="8,-62 8,-203 174,-203 174,-62 8,-62"/>
</g>
<g id="clust2" class="cluster">
<title>cluster_workflow_inner</title>
<polygon fill="none" stroke="white" stroke-width="2" points="16,-70 16,-195 166,-195 166,-70 16,-70"/>
</g>
<g id="clust5" class="cluster">
<title>cluster_outflows</title>
<polygon fill="none" stroke="white" stroke-width="2" points="68,-8 68,-54 114,-54 114,-8 68,-8"/>
</g>
<g id="clust6" class="cluster">
<title>cluster_outflows_inner</title>
<polygon fill="none" stroke="white" stroke-width="2" points="76,-16 76,-46 106,-46 106,-16 76,-16"/>
</g>
<!-- initialize_run -->
<g id="node1" class="node">
<title>initialize_run</title>
<polygon fill="#ccffcc" stroke="black" points="157.62,-187 24.3803,-187 24.3803,-151 157.62,-151 157.62,-187"/>
<text text-anchor="middle" x="91" y="-164.8" font-family="Courier,monospace" font-size="14.00">initialize_run</text>
</g>
<!-- run_log -->
<g id="node2" class="node">
<title>run_log</title>
<path fill="#ffe4b5" stroke="black" d="M65.2952,-78.5C65.2952,-78.5 116.705,-78.5 116.705,-78.5 122.705,-78.5 128.705,-84.5 128.705,-90.5 128.705,-90.5 128.705,-102.5 128.705,-102.5 128.705,-108.5 122.705,-114.5 116.705,-114.5 116.705,-114.5 65.2952,-114.5 65.2952,-114.5 59.2952,-114.5 53.2952,-108.5 53.2952,-102.5 53.2952,-102.5 53.2952,-90.5 53.2952,-90.5 53.2952,-84.5 59.2952,-78.5 65.2952,-78.5"/>
<text text-anchor="middle" x="91" y="-102.8" font-family="Courier,monospace" font-weight="bold" font-size="9.00">run_log</text>
<polyline fill="none" stroke="black" points="53.2952,-96.5 128.705,-96.5 "/>
<text text-anchor="start" x="61.2952" y="-84.8" font-family="Courier,monospace" font-weight="bold" font-size="9.00">run_log.log</text>
</g>
<!-- initialize_run&#45;&gt;run_log -->
<g id="edge1" class="edge">
<title>initialize_run&#45;&gt;run_log</title>
<path fill="none" stroke="black" d="M91,-150.705C91,-142.832 91,-133.447 91,-124.717"/>
<polygon fill="black" stroke="black" points="94.5001,-124.538 91,-114.538 87.5001,-124.538 94.5001,-124.538"/>
</g>
<!-- run_log_outflow -->
<g id="node3" class="node">
<title>run_log_outflow</title>
<ellipse fill="none" stroke="black" cx="91" cy="-31" rx="7" ry="7"/>
</g>
<!-- run_log&#45;&gt;run_log_outflow -->
<g id="edge2" class="edge">
<title>run_log&#45;&gt;run_log_outflow</title>
<path fill="none" stroke="black" d="M91,-78.2546C91,-68.8859 91,-57.5326 91,-48.3027"/>
<polygon fill="black" stroke="black" points="94.5001,-48.0563 91,-38.0563 87.5001,-48.0563 94.5001,-48.0563"/>
</g>
</g>
</svg>
