<?xml version="1.0" encoding="UTF-8" standalone="no"?>
<!DOCTYPE svg PUBLIC "-//W3C//DTD SVG 1.1//EN"
 "http://www.w3.org/Graphics/SVG/1.1/DTD/svg11.dtd">
<!-- Generated by graphviz version 2.39.20160823.1445 (20160823.1445)
 -->
<!-- Title: yw_data_view Pages: 1 -->
<svg width="380pt" height="516pt"
 viewBox="0.00 0.00 380.00 516.00" xmlns="http://www.w3.org/2000/svg" xmlns:xlink="http://www.w3.org/1999/xlink">
<g id="graph0" class="graph" transform="scale(1 1) rotate(0) translate(4 512)">
<title>yw_data_view</title>
<polygon fill="white" stroke="transparent" points="-4,4 -4,-512 376,-512 376,4 -4,4"/>
<text text-anchor="middle" x="186" y="-489.6" font-family="Courier,monospace" font-size="18.00">topic_modeling</text>
<g id="clust1" class="cluster">
<title>cluster_workflow</title>
<polygon fill="none" stroke="black" stroke-width="2" points="8,-62 8,-420 364,-420 364,-62 8,-62"/>
</g>
<g id="clust2" class="cluster">
<title>cluster_workflow_inner</title>
<polygon fill="none" stroke="white" stroke-width="2" points="16,-70 16,-412 356,-412 356,-70 16,-70"/>
</g>
<g id="clust3" class="cluster">
<title>cluster_inflows</title>
<polygon fill="none" stroke="white" stroke-width="2" points="163,-428 163,-474 337,-474 337,-428 163,-428"/>
</g>
<g id="clust4" class="cluster">
<title>cluster_inflows_inner</title>
<polygon fill="none" stroke="white" stroke-width="2" points="171,-436 171,-466 329,-466 329,-436 171,-436"/>
</g>
<g id="clust5" class="cluster">
<title>cluster_outflows</title>
<polygon fill="none" stroke="white" stroke-width="2" points="168,-8 168,-54 214,-54 214,-8 168,-8"/>
</g>
<g id="clust6" class="cluster">
<title>cluster_outflows_inner</title>
<polygon fill="none" stroke="white" stroke-width="2" points="176,-16 176,-46 206,-46 206,-16 176,-16"/>
</g>
<!-- ConstructCorpus -->
<g id="node1" class="node">
<title>ConstructCorpus</title>
<polygon fill="#ccffcc" stroke="black" points="220.021,-331 77.9795,-331 77.9795,-295 220.021,-295 220.021,-331"/>
<text text-anchor="middle" x="149" y="-308.8" font-family="Courier,monospace" font-size="14.00">ConstructCorpus</text>
</g>
<!-- dictionary -->
<g id="node3" class="node">
<title>dictionary</title>
<path fill="#ffffcc" stroke="black" d="M87.917,-259C87.917,-259 36.083,-259 36.083,-259 30.083,-259 24.083,-253 24.083,-247 24.083,-247 24.083,-235 24.083,-235 24.083,-229 30.083,-223 36.083,-223 36.083,-223 87.917,-223 87.917,-223 93.917,-223 99.917,-229 99.917,-235 99.917,-235 99.917,-247 99.917,-247 99.917,-253 93.917,-259 87.917,-259"/>
<text text-anchor="middle" x="62" y="-236.8" font-family="Helvetica,sans-Serif" font-size="14.00">dictionary</text>
</g>
<!-- ConstructCorpus&#45;&gt;dictionary -->
<g id="edge8" class="edge">
<title>ConstructCorpus&#45;&gt;dictionary</title>
<path fill="none" stroke="black" d="M127.046,-294.831C116.331,-285.963 103.281,-275.164 91.691,-265.572"/>
<polygon fill="black" stroke="black" points="93.8822,-262.842 83.9467,-259.163 89.4192,-268.235 93.8822,-262.842"/>
</g>
<!-- Corpus -->
<g id="node4" class="node">
<title>Corpus</title>
<path fill="#ffffcc" stroke="black" d="M167.631,-259C167.631,-259 130.369,-259 130.369,-259 124.369,-259 118.369,-253 118.369,-247 118.369,-247 118.369,-235 118.369,-235 118.369,-229 124.369,-223 130.369,-223 130.369,-223 167.631,-223 167.631,-223 173.631,-223 179.631,-229 179.631,-235 179.631,-235 179.631,-247 179.631,-247 179.631,-253 173.631,-259 167.631,-259"/>
<text text-anchor="middle" x="149" y="-236.8" font-family="Helvetica,sans-Serif" font-size="14.00">Corpus</text>
</g>
<!-- ConstructCorpus&#45;&gt;Corpus -->
<g id="edge9" class="edge">
<title>ConstructCorpus&#45;&gt;Corpus</title>
<path fill="none" stroke="black" d="M149,-294.831C149,-287.131 149,-277.974 149,-269.417"/>
<polygon fill="black" stroke="black" points="152.5,-269.413 149,-259.413 145.5,-269.413 152.5,-269.413"/>
</g>
<!-- Train_LDA_Model -->
<g id="node2" class="node">
<title>Train_LDA_Model</title>
<polygon fill="#ccffcc" stroke="black" points="262.021,-187 119.979,-187 119.979,-151 262.021,-151 262.021,-187"/>
<text text-anchor="middle" x="191" y="-164.8" font-family="Courier,monospace" font-size="14.00">Train_LDA_Model</text>
</g>
<!-- LDA_model -->
<g id="node6" class="node">
<title>LDA_model</title>
<path fill="#ffe4b5" stroke="black" d="M159.894,-78.5C159.894,-78.5 222.106,-78.5 222.106,-78.5 228.106,-78.5 234.106,-84.5 234.106,-90.5 234.106,-90.5 234.106,-102.5 234.106,-102.5 234.106,-108.5 228.106,-114.5 222.106,-114.5 222.106,-114.5 159.894,-114.5 159.894,-114.5 153.894,-114.5 147.894,-108.5 147.894,-102.5 147.894,-102.5 147.894,-90.5 147.894,-90.5 147.894,-84.5 153.894,-78.5 159.894,-78.5"/>
<text text-anchor="middle" x="191" y="-102.8" font-family="Courier,monospace" font-weight="bold" font-size="9.00">LDA_model</text>
<polyline fill="none" stroke="black" points="147.894,-96.5 234.106,-96.5 "/>
<text text-anchor="start" x="155.894" y="-84.8" font-family="Courier,monospace" font-weight="bold" font-size="9.00">LDA_model.txt</text>
</g>
<!-- Train_LDA_Model&#45;&gt;LDA_model -->
<g id="edge10" class="edge">
<title>Train_LDA_Model&#45;&gt;LDA_model</title>
<path fill="none" stroke="black" d="M191,-150.705C191,-142.832 191,-133.447 191,-124.717"/>
<polygon fill="black" stroke="black" points="194.5,-124.538 191,-114.538 187.5,-124.538 194.5,-124.538"/>
</g>
<!-- dictionary&#45;&gt;Train_LDA_Model -->
<g id="edge4" class="edge">
<title>dictionary&#45;&gt;Train_LDA_Model</title>
<path fill="none" stroke="black" d="M94.5521,-222.831C111.205,-213.537 131.659,-202.121 149.439,-192.197"/>
<polygon fill="black" stroke="black" points="151.432,-195.093 158.458,-187.163 148.02,-188.98 151.432,-195.093"/>
</g>
<!-- Corpus&#45;&gt;Train_LDA_Model -->
<g id="edge3" class="edge">
<title>Corpus&#45;&gt;Train_LDA_Model</title>
<path fill="none" stroke="black" d="M159.598,-222.831C164.288,-214.792 169.903,-205.167 175.08,-196.292"/>
<polygon fill="black" stroke="black" points="178.243,-197.815 180.259,-187.413 172.197,-194.288 178.243,-197.815"/>
</g>
<!-- Static_text -->
<g id="node5" class="node">
<title>Static_text</title>
<path fill="#ffe4b5" stroke="black" d="M221.595,-367.5C221.595,-367.5 278.405,-367.5 278.405,-367.5 284.405,-367.5 290.405,-373.5 290.405,-379.5 290.405,-379.5 290.405,-391.5 290.405,-391.5 290.405,-397.5 284.405,-403.5 278.405,-403.5 278.405,-403.5 221.595,-403.5 221.595,-403.5 215.595,-403.5 209.595,-397.5 209.595,-391.5 209.595,-391.5 209.595,-379.5 209.595,-379.5 209.595,-373.5 215.595,-367.5 221.595,-367.5"/>
<text text-anchor="middle" x="250" y="-391.8" font-family="Courier,monospace" font-weight="bold" font-size="9.00">Static_text</text>
<polyline fill="none" stroke="black" points="209.595,-385.5 290.405,-385.5 "/>
<text text-anchor="start" x="217.595" y="-373.8" font-family="Courier,monospace" font-weight="bold" font-size="9.00">news2012.txt</text>
</g>
<!-- Static_text&#45;&gt;ConstructCorpus -->
<g id="edge7" class="edge">
<title>Static_text&#45;&gt;ConstructCorpus</title>
<path fill="none" stroke="black" d="M224.774,-367.392C212,-358.223 196.319,-346.967 182.543,-337.078"/>
<polygon fill="black" stroke="black" points="184.419,-334.116 174.254,-331.128 180.337,-339.803 184.419,-334.116"/>
</g>
<!-- LDA_model_outflow -->
<g id="node16" class="node">
<title>LDA_model_outflow</title>
<ellipse fill="none" stroke="black" cx="191" cy="-31" rx="7" ry="7"/>
</g>
<!-- LDA_model&#45;&gt;LDA_model_outflow -->
<g id="edge16" class="edge">
<title>LDA_model&#45;&gt;LDA_model_outflow</title>
<path fill="none" stroke="black" d="M191,-78.2546C191,-68.8859 191,-57.5326 191,-48.3027"/>
<polygon fill="black" stroke="black" points="194.5,-48.0563 191,-38.0563 187.5,-48.0563 194.5,-48.0563"/>
</g>
<!-- stopwords -->
<g id="node7" class="node">
<title>stopwords</title>
<path fill="#ffffff" stroke="black" d="M179.519,-403.5C179.519,-403.5 146.481,-403.5 146.481,-403.5 140.481,-403.5 134.481,-397.5 134.481,-391.5 134.481,-391.5 134.481,-379.5 134.481,-379.5 134.481,-373.5 140.481,-367.5 146.481,-367.5 146.481,-367.5 179.519,-367.5 179.519,-367.5 185.519,-367.5 191.519,-373.5 191.519,-379.5 191.519,-379.5 191.519,-391.5 191.519,-391.5 191.519,-397.5 185.519,-403.5 179.519,-403.5"/>
<text text-anchor="middle" x="163" y="-382.8" font-family="Helvetica,sans-Serif" font-size="9.00">stopwords</text>
</g>
<!-- stopwords&#45;&gt;ConstructCorpus -->
<g id="edge6" class="edge">
<title>stopwords&#45;&gt;ConstructCorpus</title>
<path fill="none" stroke="black" d="M159.467,-367.205C157.93,-359.245 156.095,-349.741 154.393,-340.929"/>
<polygon fill="black" stroke="black" points="157.816,-340.193 152.483,-331.038 150.943,-341.52 157.816,-340.193"/>
</g>
<!-- regular_expression -->
<g id="node8" class="node">
<title>regular_expression</title>
<path fill="#ffffff" stroke="black" d="M104.045,-403.5C104.045,-403.5 35.9549,-403.5 35.9549,-403.5 29.9549,-403.5 23.9549,-397.5 23.9549,-391.5 23.9549,-391.5 23.9549,-379.5 23.9549,-379.5 23.9549,-373.5 29.9549,-367.5 35.9549,-367.5 35.9549,-367.5 104.045,-367.5 104.045,-367.5 110.045,-367.5 116.045,-373.5 116.045,-379.5 116.045,-379.5 116.045,-391.5 116.045,-391.5 116.045,-397.5 110.045,-403.5 104.045,-403.5"/>
<text text-anchor="middle" x="70" y="-382.8" font-family="Helvetica,sans-Serif" font-size="9.00">regular_expression</text>
</g>
<!-- regular_expression&#45;&gt;ConstructCorpus -->
<g id="edge5" class="edge">
<title>regular_expression&#45;&gt;ConstructCorpus</title>
<path fill="none" stroke="black" d="M89.935,-367.205C99.6454,-358.294 111.466,-347.446 121.974,-337.802"/>
<polygon fill="black" stroke="black" points="124.344,-340.378 129.345,-331.038 119.611,-335.221 124.344,-340.378"/>
</g>
<!-- num_iteration -->
<g id="node9" class="node">
<title>num_iteration</title>
<path fill="#ffffff" stroke="black" d="M256.033,-259C256.033,-259 209.967,-259 209.967,-259 203.967,-259 197.967,-253 197.967,-247 197.967,-247 197.967,-235 197.967,-235 197.967,-229 203.967,-223 209.967,-223 209.967,-223 256.033,-223 256.033,-223 262.033,-223 268.033,-229 268.033,-235 268.033,-235 268.033,-247 268.033,-247 268.033,-253 262.033,-259 256.033,-259"/>
<text text-anchor="middle" x="233" y="-238.3" font-family="Helvetica,sans-Serif" font-size="9.00">num_iteration</text>
</g>
<!-- num_iteration&#45;&gt;Train_LDA_Model -->
<g id="edge2" class="edge">
<title>num_iteration&#45;&gt;Train_LDA_Model</title>
<path fill="none" stroke="black" d="M222.402,-222.831C217.712,-214.792 212.097,-205.167 206.92,-196.292"/>
<polygon fill="black" stroke="black" points="209.803,-194.288 201.741,-187.413 203.757,-197.815 209.803,-194.288"/>
</g>
<!-- num_topics -->
<g id="node10" class="node">
<title>num_topics</title>
<path fill="#ffffff" stroke="black" d="M336.024,-259C336.024,-259 297.976,-259 297.976,-259 291.976,-259 285.976,-253 285.976,-247 285.976,-247 285.976,-235 285.976,-235 285.976,-229 291.976,-223 297.976,-223 297.976,-223 336.024,-223 336.024,-223 342.024,-223 348.024,-229 348.024,-235 348.024,-235 348.024,-247 348.024,-247 348.024,-253 342.024,-259 336.024,-259"/>
<text text-anchor="middle" x="317" y="-238.3" font-family="Helvetica,sans-Serif" font-size="9.00">num_topics</text>
</g>
<!-- num_topics&#45;&gt;Train_LDA_Model -->
<g id="edge1" class="edge">
<title>num_topics&#45;&gt;Train_LDA_Model</title>
<path fill="none" stroke="black" d="M285.854,-223.202C269.471,-213.84 249.187,-202.25 231.587,-192.193"/>
<polygon fill="black" stroke="black" points="233.082,-189.016 222.663,-187.093 229.609,-195.093 233.082,-189.016"/>
</g>
<!-- Static_text_inflow -->
<g id="node11" class="node">
<title>Static_text_inflow</title>
<ellipse fill="none" stroke="black" cx="250" cy="-451" rx="7" ry="7"/>
</g>
<!-- Static_text_inflow&#45;&gt;Static_text -->
<g id="edge11" class="edge">
<title>Static_text_inflow&#45;&gt;Static_text</title>
<path fill="none" stroke="black" d="M250,-443.99C250,-436.738 250,-424.935 250,-413.824"/>
<polygon fill="black" stroke="black" points="253.5,-413.555 250,-403.555 246.5,-413.555 253.5,-413.555"/>
</g>
<!-- stopwords_inflow -->
<g id="node12" class="node">
<title>stopwords_inflow</title>
<ellipse fill="none" stroke="black" cx="218" cy="-451" rx="7" ry="7"/>
</g>
<!-- stopwords_inflow&#45;&gt;stopwords -->
<g id="edge12" class="edge">
<title>stopwords_inflow&#45;&gt;stopwords</title>
<path fill="none" stroke="black" d="M214.006,-444.785C210.893,-440.062 206.378,-433.468 202,-428 197.542,-422.433 192.547,-416.674 187.657,-411.261"/>
<polygon fill="black" stroke="black" points="189.991,-408.628 180.644,-403.64 184.84,-413.368 189.991,-408.628"/>
</g>
<!-- regular_expression_inflow -->
<g id="node13" class="node">
<title>regular_expression_inflow</title>
<ellipse fill="none" stroke="black" cx="186" cy="-451" rx="7" ry="7"/>
</g>
<!-- regular_expression_inflow&#45;&gt;regular_expression -->
<g id="edge13" class="edge">
<title>regular_expression_inflow&#45;&gt;regular_expression</title>
<path fill="none" stroke="black" d="M179.488,-447.929C168.222,-442.564 144.434,-431.004 125,-420 118.937,-416.567 112.596,-412.781 106.463,-409.011"/>
<polygon fill="black" stroke="black" points="108.024,-405.86 97.6855,-403.545 104.324,-411.802 108.024,-405.86"/>
</g>
<!-- num_iteration_inflow -->
<g id="node14" class="node">
<title>num_iteration_inflow</title>
<ellipse fill="none" stroke="black" cx="282" cy="-451" rx="7" ry="7"/>
</g>
<!-- num_iteration_inflow&#45;&gt;num_iteration -->
<g id="edge14" class="edge">
<title>num_iteration_inflow&#45;&gt;num_iteration</title>
<path fill="none" stroke="black" d="M286.351,-445.205C290.531,-439.245 296.563,-429.514 299,-420 304.846,-397.181 304.628,-389.873 299,-367 289.909,-330.053 267.853,-291.938 251.732,-267.444"/>
<polygon fill="black" stroke="black" points="254.581,-265.409 246.096,-259.064 248.772,-269.315 254.581,-265.409"/>
</g>
<!-- num_topics_inflow -->
<g id="node15" class="node">
<title>num_topics_inflow</title>
<ellipse fill="none" stroke="black" cx="314" cy="-451" rx="7" ry="7"/>
</g>
<!-- num_topics_inflow&#45;&gt;num_topics -->
<g id="edge15" class="edge">
<title>num_topics_inflow&#45;&gt;num_topics</title>
<path fill="none" stroke="black" d="M318.603,-445.248C323.027,-439.321 329.411,-429.615 332,-420 346.445,-366.355 339.503,-350.047 332,-295 330.823,-286.364 328.633,-277.16 326.283,-268.843"/>
<polygon fill="black" stroke="black" points="329.626,-267.804 323.395,-259.235 322.922,-269.82 329.626,-267.804"/>
</g>
</g>
</svg>
