<?xml version="1.0" encoding="UTF-8" standalone="no"?>
<!DOCTYPE svg PUBLIC "-//W3C//DTD SVG 1.1//EN"
 "http://www.w3.org/Graphics/SVG/1.1/DTD/svg11.dtd">
<!-- Generated by graphviz version 2.39.20160823.1445 (20160823.1445)
 -->
<!-- Title: yw_data_view Pages: 1 -->
<svg width="353pt" height="516pt"
 viewBox="0.00 0.00 353.00 516.00" xmlns="http://www.w3.org/2000/svg" xmlns:xlink="http://www.w3.org/1999/xlink">
<g id="graph0" class="graph" transform="scale(1 1) rotate(0) translate(4 512)">
<title>yw_data_view</title>
<polygon fill="white" stroke="transparent" points="-4,4 -4,-512 349,-512 349,4 -4,4"/>
<text text-anchor="middle" x="172.5" y="-489.6" font-family="Courier,monospace" font-size="18.00">topic_modeling</text>
<g id="clust1" class="cluster">
<title>cluster_workflow</title>
<polygon fill="none" stroke="black" stroke-width="2" points="8,-62 8,-420 334,-420 334,-62 8,-62"/>
</g>
<g id="clust2" class="cluster">
<title>cluster_workflow_inner</title>
<polygon fill="none" stroke="white" stroke-width="2" points="16,-70 16,-412 326,-412 326,-70 16,-70"/>
</g>
<g id="clust3" class="cluster">
<title>cluster_inflows</title>
<polygon fill="none" stroke="white" stroke-width="2" points="163,-428 163,-474 337,-474 337,-428 163,-428"/>
</g>
<g id="clust4" class="cluster">
<title>cluster_inflows_inner</title>
<polygon fill="none" stroke="white" stroke-width="2" points="171,-436 171,-466 329,-466 329,-436 171,-436"/>
</g>
<g id="clust5" class="cluster">
<title>cluster_outflows</title>
<polygon fill="none" stroke="white" stroke-width="2" points="105,-8 105,-54 183,-54 183,-8 105,-8"/>
</g>
<g id="clust6" class="cluster">
<title>cluster_outflows_inner</title>
<polygon fill="none" stroke="white" stroke-width="2" points="113,-16 113,-46 175,-46 175,-16 113,-16"/>
</g>
<!-- initialize_run -->
<g id="node1" class="node">
<title>initialize_run</title>
<polygon fill="#ccffcc" stroke="black" points="317.62,-187 184.38,-187 184.38,-151 317.62,-151 317.62,-187"/>
<text text-anchor="middle" x="251" y="-164.8" font-family="Courier,monospace" font-size="14.00">initialize_run</text>
</g>
<!-- LogFile -->
<g id="node7" class="node">
<title>LogFile</title>
<path fill="#ffe4b5" stroke="black" d="M168.295,-78.5C168.295,-78.5 219.705,-78.5 219.705,-78.5 225.705,-78.5 231.705,-84.5 231.705,-90.5 231.705,-90.5 231.705,-102.5 231.705,-102.5 231.705,-108.5 225.705,-114.5 219.705,-114.5 219.705,-114.5 168.295,-114.5 168.295,-114.5 162.295,-114.5 156.295,-108.5 156.295,-102.5 156.295,-102.5 156.295,-90.5 156.295,-90.5 156.295,-84.5 162.295,-78.5 168.295,-78.5"/>
<text text-anchor="middle" x="194" y="-102.8" font-family="Courier,monospace" font-weight="bold" font-size="9.00">LogFile</text>
<polyline fill="none" stroke="black" points="156.295,-96.5 231.705,-96.5 "/>
<text text-anchor="start" x="164.295" y="-84.8" font-family="Courier,monospace" font-weight="bold" font-size="9.00">run_log.log</text>
</g>
<!-- initialize_run&#45;&gt;LogFile -->
<g id="edge8" class="edge">
<title>initialize_run&#45;&gt;LogFile</title>
<path fill="none" stroke="black" d="M236.616,-150.705C229.882,-142.14 221.742,-131.785 214.387,-122.431"/>
<polygon fill="black" stroke="black" points="217.114,-120.236 208.181,-114.538 211.611,-124.562 217.114,-120.236"/>
</g>
<!-- Train_LDA_Model -->
<g id="node2" class="node">
<title>Train_LDA_Model</title>
<polygon fill="#ccffcc" stroke="black" points="166.021,-187 23.9795,-187 23.9795,-151 166.021,-151 166.021,-187"/>
<text text-anchor="middle" x="95" y="-164.8" font-family="Courier,monospace" font-size="14.00">Train_LDA_Model</text>
</g>
<!-- Train_LDA_Model&#45;&gt;LogFile -->
<g id="edge11" class="edge">
<title>Train_LDA_Model&#45;&gt;LogFile</title>
<path fill="none" stroke="black" d="M119.727,-150.892C132.248,-141.723 147.618,-130.467 161.121,-120.578"/>
<polygon fill="black" stroke="black" points="163.246,-123.36 169.246,-114.628 159.11,-117.713 163.246,-123.36"/>
</g>
<!-- LDA_model -->
<g id="node8" class="node">
<title>LDA_model</title>
<path fill="#ffe4b5" stroke="black" d="M63.8943,-78.5C63.8943,-78.5 126.106,-78.5 126.106,-78.5 132.106,-78.5 138.106,-84.5 138.106,-90.5 138.106,-90.5 138.106,-102.5 138.106,-102.5 138.106,-108.5 132.106,-114.5 126.106,-114.5 126.106,-114.5 63.8943,-114.5 63.8943,-114.5 57.8943,-114.5 51.8943,-108.5 51.8943,-102.5 51.8943,-102.5 51.8943,-90.5 51.8943,-90.5 51.8943,-84.5 57.8943,-78.5 63.8943,-78.5"/>
<text text-anchor="middle" x="95" y="-102.8" font-family="Courier,monospace" font-weight="bold" font-size="9.00">LDA_model</text>
<polyline fill="none" stroke="black" points="51.8943,-96.5 138.106,-96.5 "/>
<text text-anchor="start" x="59.8943" y="-84.8" font-family="Courier,monospace" font-weight="bold" font-size="9.00">LDA_model.txt</text>
</g>
<!-- Train_LDA_Model&#45;&gt;LDA_model -->
<g id="edge12" class="edge">
<title>Train_LDA_Model&#45;&gt;LDA_model</title>
<path fill="none" stroke="black" d="M95,-150.705C95,-142.832 95,-133.447 95,-124.717"/>
<polygon fill="black" stroke="black" points="98.5001,-124.538 95,-114.538 91.5001,-124.538 98.5001,-124.538"/>
</g>
<!-- ConstructCorpus -->
<g id="node3" class="node">
<title>ConstructCorpus</title>
<polygon fill="#ccffcc" stroke="black" points="194.021,-331 51.9795,-331 51.9795,-295 194.021,-295 194.021,-331"/>
<text text-anchor="middle" x="123" y="-308.8" font-family="Courier,monospace" font-size="14.00">ConstructCorpus</text>
</g>
<!-- dictionary -->
<g id="node5" class="node">
<title>dictionary</title>
<path fill="#ffffcc" stroke="black" d="M66.0202,-259C66.0202,-259 35.9798,-259 35.9798,-259 29.9798,-259 23.9798,-253 23.9798,-247 23.9798,-247 23.9798,-235 23.9798,-235 23.9798,-229 29.9798,-223 35.9798,-223 35.9798,-223 66.0202,-223 66.0202,-223 72.0202,-223 78.0202,-229 78.0202,-235 78.0202,-235 78.0202,-247 78.0202,-247 78.0202,-253 72.0202,-259 66.0202,-259"/>
<text text-anchor="middle" x="51" y="-238.3" font-family="Helvetica,sans-Serif" font-size="9.00">dictionary</text>
</g>
<!-- ConstructCorpus&#45;&gt;dictionary -->
<g id="edge9" class="edge">
<title>ConstructCorpus&#45;&gt;dictionary</title>
<path fill="none" stroke="black" d="M104.831,-294.831C96.2848,-286.285 85.9443,-275.944 76.6198,-266.62"/>
<polygon fill="black" stroke="black" points="78.9592,-264.009 69.4133,-259.413 74.0095,-268.959 78.9592,-264.009"/>
</g>
<!-- Corpus -->
<g id="node6" class="node">
<title>Corpus</title>
<path fill="#ffffcc" stroke="black" d="M138,-259C138,-259 108,-259 108,-259 102,-259 96,-253 96,-247 96,-247 96,-235 96,-235 96,-229 102,-223 108,-223 108,-223 138,-223 138,-223 144,-223 150,-229 150,-235 150,-235 150,-247 150,-247 150,-253 144,-259 138,-259"/>
<text text-anchor="middle" x="123" y="-238.3" font-family="Helvetica,sans-Serif" font-size="9.00">Corpus</text>
</g>
<!-- ConstructCorpus&#45;&gt;Corpus -->
<g id="edge10" class="edge">
<title>ConstructCorpus&#45;&gt;Corpus</title>
<path fill="none" stroke="black" d="M123,-294.831C123,-287.131 123,-277.974 123,-269.417"/>
<polygon fill="black" stroke="black" points="126.5,-269.413 123,-259.413 119.5,-269.413 126.5,-269.413"/>
</g>
<!-- Static_text -->
<g id="node4" class="node">
<title>Static_text</title>
<path fill="#ffe4b5" stroke="black" d="M221.595,-367.5C221.595,-367.5 278.405,-367.5 278.405,-367.5 284.405,-367.5 290.405,-373.5 290.405,-379.5 290.405,-379.5 290.405,-391.5 290.405,-391.5 290.405,-397.5 284.405,-403.5 278.405,-403.5 278.405,-403.5 221.595,-403.5 221.595,-403.5 215.595,-403.5 209.595,-397.5 209.595,-391.5 209.595,-391.5 209.595,-379.5 209.595,-379.5 209.595,-373.5 215.595,-367.5 221.595,-367.5"/>
<text text-anchor="middle" x="250" y="-391.8" font-family="Courier,monospace" font-weight="bold" font-size="9.00">Static_text</text>
<polyline fill="none" stroke="black" points="209.595,-385.5 290.405,-385.5 "/>
<text text-anchor="start" x="217.595" y="-373.8" font-family="Courier,monospace" font-weight="bold" font-size="9.00">news2012.txt</text>
</g>
<!-- Static_text&#45;&gt;ConstructCorpus -->
<g id="edge1" class="edge">
<title>Static_text&#45;&gt;ConstructCorpus</title>
<path fill="none" stroke="black" d="M218.28,-367.392C201.763,-357.963 181.381,-346.328 163.713,-336.242"/>
<polygon fill="black" stroke="black" points="165.175,-333.046 154.756,-331.128 161.705,-339.126 165.175,-333.046"/>
</g>
<!-- dictionary&#45;&gt;Train_LDA_Model -->
<g id="edge4" class="edge">
<title>dictionary&#45;&gt;Train_LDA_Model</title>
<path fill="none" stroke="black" d="M62.1031,-222.831C67.0674,-214.708 73.0222,-204.964 78.4928,-196.012"/>
<polygon fill="black" stroke="black" points="81.5194,-197.771 83.7474,-187.413 75.5464,-194.121 81.5194,-197.771"/>
</g>
<!-- Corpus&#45;&gt;Train_LDA_Model -->
<g id="edge5" class="edge">
<title>Corpus&#45;&gt;Train_LDA_Model</title>
<path fill="none" stroke="black" d="M115.934,-222.831C112.874,-214.962 109.222,-205.571 105.832,-196.853"/>
<polygon fill="black" stroke="black" points="109.047,-195.465 102.161,-187.413 102.523,-198.002 109.047,-195.465"/>
</g>
<!-- LogFile_outflow -->
<g id="node19" class="node">
<title>LogFile_outflow</title>
<ellipse fill="none" stroke="black" cx="160" cy="-31" rx="7" ry="7"/>
</g>
<!-- LogFile&#45;&gt;LogFile_outflow -->
<g id="edge19" class="edge">
<title>LogFile&#45;&gt;LogFile_outflow</title>
<path fill="none" stroke="black" d="M184.529,-78.2546C179.334,-68.2471 172.964,-55.9753 168.018,-46.4457"/>
<polygon fill="black" stroke="black" points="171.045,-44.6814 163.332,-37.4184 164.832,-47.9064 171.045,-44.6814"/>
</g>
<!-- LDA_model_outflow -->
<g id="node18" class="node">
<title>LDA_model_outflow</title>
<ellipse fill="none" stroke="black" cx="128" cy="-31" rx="7" ry="7"/>
</g>
<!-- LDA_model&#45;&gt;LDA_model_outflow -->
<g id="edge18" class="edge">
<title>LDA_model&#45;&gt;LDA_model_outflow</title>
<path fill="none" stroke="black" d="M104.192,-78.2546C109.234,-68.2471 115.417,-55.9753 120.218,-46.4457"/>
<polygon fill="black" stroke="black" points="123.393,-47.9238 124.766,-37.4184 117.141,-44.7742 123.393,-47.9238"/>
</g>
<!-- stopwords -->
<g id="node9" class="node">
<title>stopwords</title>
<path fill="#ffffff" stroke="black" d="M179.519,-403.5C179.519,-403.5 146.481,-403.5 146.481,-403.5 140.481,-403.5 134.481,-397.5 134.481,-391.5 134.481,-391.5 134.481,-379.5 134.481,-379.5 134.481,-373.5 140.481,-367.5 146.481,-367.5 146.481,-367.5 179.519,-367.5 179.519,-367.5 185.519,-367.5 191.519,-373.5 191.519,-379.5 191.519,-379.5 191.519,-391.5 191.519,-391.5 191.519,-397.5 185.519,-403.5 179.519,-403.5"/>
<text text-anchor="middle" x="163" y="-382.8" font-family="Helvetica,sans-Serif" font-size="9.00">stopwords</text>
</g>
<!-- stopwords&#45;&gt;ConstructCorpus -->
<g id="edge2" class="edge">
<title>stopwords&#45;&gt;ConstructCorpus</title>
<path fill="none" stroke="black" d="M152.906,-367.205C148.372,-358.986 142.928,-349.119 137.935,-340.069"/>
<polygon fill="black" stroke="black" points="140.847,-338.103 132.952,-331.038 134.718,-341.484 140.847,-338.103"/>
</g>
<!-- regular_expression -->
<g id="node10" class="node">
<title>regular_expression</title>
<path fill="#ffffff" stroke="black" d="M104.045,-403.5C104.045,-403.5 35.9549,-403.5 35.9549,-403.5 29.9549,-403.5 23.9549,-397.5 23.9549,-391.5 23.9549,-391.5 23.9549,-379.5 23.9549,-379.5 23.9549,-373.5 29.9549,-367.5 35.9549,-367.5 35.9549,-367.5 104.045,-367.5 104.045,-367.5 110.045,-367.5 116.045,-373.5 116.045,-379.5 116.045,-379.5 116.045,-391.5 116.045,-391.5 116.045,-397.5 110.045,-403.5 104.045,-403.5"/>
<text text-anchor="middle" x="70" y="-382.8" font-family="Helvetica,sans-Serif" font-size="9.00">regular_expression</text>
</g>
<!-- regular_expression&#45;&gt;ConstructCorpus -->
<g id="edge3" class="edge">
<title>regular_expression&#45;&gt;ConstructCorpus</title>
<path fill="none" stroke="black" d="M83.3741,-367.205C89.5724,-358.726 97.0525,-348.494 103.836,-339.215"/>
<polygon fill="black" stroke="black" points="106.738,-341.176 109.814,-331.038 101.087,-337.045 106.738,-341.176"/>
</g>
<!-- num_iteration -->
<g id="node11" class="node">
<title>num_iteration</title>
<path fill="#ffffff" stroke="black" d="M226.033,-259C226.033,-259 179.967,-259 179.967,-259 173.967,-259 167.967,-253 167.967,-247 167.967,-247 167.967,-235 167.967,-235 167.967,-229 173.967,-223 179.967,-223 179.967,-223 226.033,-223 226.033,-223 232.033,-223 238.033,-229 238.033,-235 238.033,-235 238.033,-247 238.033,-247 238.033,-253 232.033,-259 226.033,-259"/>
<text text-anchor="middle" x="203" y="-238.3" font-family="Helvetica,sans-Serif" font-size="9.00">num_iteration</text>
</g>
<!-- num_iteration&#45;&gt;Train_LDA_Model -->
<g id="edge6" class="edge">
<title>num_iteration&#45;&gt;Train_LDA_Model</title>
<path fill="none" stroke="black" d="M175.747,-222.831C162.061,-213.707 145.309,-202.539 130.617,-192.745"/>
<polygon fill="black" stroke="black" points="132.506,-189.798 122.244,-187.163 128.623,-195.622 132.506,-189.798"/>
</g>
<!-- num_topics -->
<g id="node12" class="node">
<title>num_topics</title>
<path fill="#ffffff" stroke="black" d="M306.024,-259C306.024,-259 267.976,-259 267.976,-259 261.976,-259 255.976,-253 255.976,-247 255.976,-247 255.976,-235 255.976,-235 255.976,-229 261.976,-223 267.976,-223 267.976,-223 306.024,-223 306.024,-223 312.024,-223 318.024,-229 318.024,-235 318.024,-235 318.024,-247 318.024,-247 318.024,-253 312.024,-259 306.024,-259"/>
<text text-anchor="middle" x="287" y="-238.3" font-family="Helvetica,sans-Serif" font-size="9.00">num_topics</text>
</g>
<!-- num_topics&#45;&gt;Train_LDA_Model -->
<g id="edge7" class="edge">
<title>num_topics&#45;&gt;Train_LDA_Model</title>
<path fill="none" stroke="black" d="M255.661,-226.607C252.746,-225.356 249.826,-224.136 247,-223 218.293,-211.464 186.056,-199.828 158.682,-190.327"/>
<polygon fill="black" stroke="black" points="159.81,-187.014 149.215,-187.059 157.526,-193.631 159.81,-187.014"/>
</g>
<!-- Static_text_inflow -->
<g id="node13" class="node">
<title>Static_text_inflow</title>
<ellipse fill="none" stroke="black" cx="250" cy="-451" rx="7" ry="7"/>
</g>
<!-- Static_text_inflow&#45;&gt;Static_text -->
<g id="edge13" class="edge">
<title>Static_text_inflow&#45;&gt;Static_text</title>
<path fill="none" stroke="black" d="M250,-443.99C250,-436.738 250,-424.935 250,-413.824"/>
<polygon fill="black" stroke="black" points="253.5,-413.555 250,-403.555 246.5,-413.555 253.5,-413.555"/>
</g>
<!-- stopwords_inflow -->
<g id="node14" class="node">
<title>stopwords_inflow</title>
<ellipse fill="none" stroke="black" cx="218" cy="-451" rx="7" ry="7"/>
</g>
<!-- stopwords_inflow&#45;&gt;stopwords -->
<g id="edge14" class="edge">
<title>stopwords_inflow&#45;&gt;stopwords</title>
<path fill="none" stroke="black" d="M214.006,-444.785C210.893,-440.062 206.378,-433.468 202,-428 197.542,-422.433 192.547,-416.674 187.657,-411.261"/>
<polygon fill="black" stroke="black" points="189.991,-408.628 180.644,-403.64 184.84,-413.368 189.991,-408.628"/>
</g>
<!-- regular_expression_inflow -->
<g id="node15" class="node">
<title>regular_expression_inflow</title>
<ellipse fill="none" stroke="black" cx="186" cy="-451" rx="7" ry="7"/>
</g>
<!-- regular_expression_inflow&#45;&gt;regular_expression -->
<g id="edge15" class="edge">
<title>regular_expression_inflow&#45;&gt;regular_expression</title>
<path fill="none" stroke="black" d="M179.488,-447.929C168.222,-442.564 144.434,-431.004 125,-420 118.937,-416.567 112.596,-412.781 106.463,-409.011"/>
<polygon fill="black" stroke="black" points="108.024,-405.86 97.6855,-403.545 104.324,-411.802 108.024,-405.86"/>
</g>
<!-- num_iteration_inflow -->
<g id="node16" class="node">
<title>num_iteration_inflow</title>
<ellipse fill="none" stroke="black" cx="282" cy="-451" rx="7" ry="7"/>
</g>
<!-- num_iteration_inflow&#45;&gt;num_iteration -->
<g id="edge16" class="edge">
<title>num_iteration_inflow&#45;&gt;num_iteration</title>
<path fill="none" stroke="black" d="M286.351,-445.205C290.531,-439.245 296.563,-429.514 299,-420 304.846,-397.181 306.534,-389.318 299,-367 285.508,-327.03 253.716,-289.72 230.399,-266.234"/>
<polygon fill="black" stroke="black" points="232.743,-263.629 223.161,-259.108 227.832,-268.618 232.743,-263.629"/>
</g>
<!-- num_topics_inflow -->
<g id="node17" class="node">
<title>num_topics_inflow</title>
<ellipse fill="none" stroke="black" cx="314" cy="-451" rx="7" ry="7"/>
</g>
<!-- num_topics_inflow&#45;&gt;num_topics -->
<g id="edge17" class="edge">
<title>num_topics_inflow&#45;&gt;num_topics</title>
<path fill="none" stroke="black" d="M318.603,-445.248C323.027,-439.321 329.411,-429.615 332,-420 346.445,-366.355 350.913,-347.237 332,-295 328.285,-284.739 321.675,-275.058 314.645,-266.803"/>
<polygon fill="black" stroke="black" points="317.18,-264.389 307.858,-259.354 312.006,-269.103 317.18,-264.389"/>
</g>
</g>
</svg>
