<?xml version="1.0" encoding="UTF-8" standalone="no"?>
<!DOCTYPE svg PUBLIC "-//W3C//DTD SVG 1.1//EN"
 "http://www.w3.org/Graphics/SVG/1.1/DTD/svg11.dtd">
<!-- Generated by graphviz version 2.39.20160823.1445 (20160823.1445)
 -->
<!-- Title: yw_data_view Pages: 1 -->
<svg width="190pt" height="244pt"
 viewBox="0.00 0.00 190.00 244.00" xmlns="http://www.w3.org/2000/svg" xmlns:xlink="http://www.w3.org/1999/xlink">
<g id="graph0" class="graph" transform="scale(1 1) rotate(0) translate(4 240)">
<title>yw_data_view</title>
<polygon fill="white" stroke="transparent" points="-4,4 -4,-240 186,-240 186,4 -4,4"/>
<text text-anchor="middle" x="91" y="-217.6" font-family="Courier,monospace" font-size="18.00">topic_modeling</text>
<g id="clust1" class="cluster">
<title>cluster_workflow</title>
<polygon fill="none" stroke="black" stroke-width="2" points="8,-62 8,-202 174,-202 174,-62 8,-62"/>
</g>
<g id="clust2" class="cluster">
<title>cluster_workflow_inner</title>
<polygon fill="none" stroke="white" stroke-width="2" points="16,-70 16,-194 166,-194 166,-70 16,-70"/>
</g>
<g id="clust5" class="cluster">
<title>cluster_outflows</title>
<polygon fill="none" stroke="white" stroke-width="2" points="68,-8 68,-54 114,-54 114,-8 68,-8"/>
</g>
<g id="clust6" class="cluster">
<title>cluster_outflows_inner</title>
<polygon fill="none" stroke="white" stroke-width="2" points="76,-16 76,-46 106,-46 106,-16 76,-16"/>
</g>
<!-- initialize_run -->
<g id="node1" class="node">
<title>initialize_run</title>
<polygon fill="#ccffcc" stroke="black" points="157.62,-186 24.3803,-186 24.3803,-150 157.62,-150 157.62,-186"/>
<text text-anchor="middle" x="91" y="-163.8" font-family="Courier,monospace" font-size="14.00">initialize_run</text>
</g>
<!-- run_log -->
<g id="node2" class="node">
<title>run_log</title>
<path fill="#ffffcc" stroke="black" d="M110.204,-114C110.204,-114 71.7962,-114 71.7962,-114 65.7962,-114 59.7962,-108 59.7962,-102 59.7962,-102 59.7962,-90 59.7962,-90 59.7962,-84 65.7962,-78 71.7962,-78 71.7962,-78 110.204,-78 110.204,-78 116.204,-78 122.204,-84 122.204,-90 122.204,-90 122.204,-102 122.204,-102 122.204,-108 116.204,-114 110.204,-114"/>
<text text-anchor="middle" x="91" y="-91.8" font-family="Helvetica,sans-Serif" font-size="14.00">run_log</text>
</g>
<!-- initialize_run&#45;&gt;run_log -->
<g id="edge1" class="edge">
<title>initialize_run&#45;&gt;run_log</title>
<path fill="none" stroke="black" d="M91,-149.831C91,-142.131 91,-132.974 91,-124.417"/>
<polygon fill="black" stroke="black" points="94.5001,-124.413 91,-114.413 87.5001,-124.413 94.5001,-124.413"/>
</g>
<!-- run_log_outflow -->
<g id="node3" class="node">
<title>run_log_outflow</title>
<ellipse fill="none" stroke="black" cx="91" cy="-31" rx="7" ry="7"/>
</g>
<!-- run_log&#45;&gt;run_log_outflow -->
<g id="edge2" class="edge">
<title>run_log&#45;&gt;run_log_outflow</title>
<path fill="none" stroke="black" d="M91,-77.8939C91,-68.5967 91,-57.3301 91,-48.1707"/>
<polygon fill="black" stroke="black" points="94.5001,-48.0024 91,-38.0024 87.5001,-48.0025 94.5001,-48.0024"/>
</g>
</g>
</svg>
