<?xml version="1.0" encoding="UTF-8" standalone="no"?>
<!DOCTYPE svg PUBLIC "-//W3C//DTD SVG 1.1//EN"
 "http://www.w3.org/Graphics/SVG/1.1/DTD/svg11.dtd">
<!-- Generated by graphviz version 2.39.20160823.1445 (20160823.1445)
 -->
<!-- Title: yw_data_view Pages: 1 -->
<svg width="436pt" height="514pt"
 viewBox="0.00 0.00 436.00 514.00" xmlns="http://www.w3.org/2000/svg" xmlns:xlink="http://www.w3.org/1999/xlink">
<g id="graph0" class="graph" transform="scale(1 1) rotate(0) translate(4 510)">
<title>yw_data_view</title>
<polygon fill="white" stroke="transparent" points="-4,4 -4,-510 432,-510 432,4 -4,4"/>
<text text-anchor="middle" x="214" y="-487.6" font-family="Courier,monospace" font-size="18.00">topic_modeling</text>
<g id="clust1" class="cluster">
<title>cluster_workflow</title>
<polygon fill="none" stroke="black" stroke-width="2" points="8,-62 8,-418 420,-418 420,-62 8,-62"/>
</g>
<g id="clust2" class="cluster">
<title>cluster_workflow_inner</title>
<polygon fill="none" stroke="white" stroke-width="2" points="16,-70 16,-410 412,-410 412,-70 16,-70"/>
</g>
<g id="clust3" class="cluster">
<title>cluster_inflows</title>
<polygon fill="none" stroke="white" stroke-width="2" points="229,-426 229,-472 403,-472 403,-426 229,-426"/>
</g>
<g id="clust4" class="cluster">
<title>cluster_inflows_inner</title>
<polygon fill="none" stroke="white" stroke-width="2" points="237,-434 237,-464 395,-464 395,-434 237,-434"/>
</g>
<g id="clust5" class="cluster">
<title>cluster_outflows</title>
<polygon fill="none" stroke="white" stroke-width="2" points="175,-8 175,-54 221,-54 221,-8 175,-8"/>
</g>
<g id="clust6" class="cluster">
<title>cluster_outflows_inner</title>
<polygon fill="none" stroke="white" stroke-width="2" points="183,-16 183,-46 213,-46 213,-16 183,-16"/>
</g>
<!-- ConstructCorpus -->
<g id="node1" class="node">
<title>ConstructCorpus</title>
<polygon fill="#ccffcc" stroke="black" points="220.021,-330 77.9795,-330 77.9795,-294 220.021,-294 220.021,-330"/>
<text text-anchor="middle" x="149" y="-307.8" font-family="Courier,monospace" font-size="14.00">ConstructCorpus</text>
</g>
<!-- dictionary -->
<g id="node4" class="node">
<title>dictionary</title>
<path fill="#ffffcc" stroke="black" d="M87.917,-258C87.917,-258 36.083,-258 36.083,-258 30.083,-258 24.083,-252 24.083,-246 24.083,-246 24.083,-234 24.083,-234 24.083,-228 30.083,-222 36.083,-222 36.083,-222 87.917,-222 87.917,-222 93.917,-222 99.917,-228 99.917,-234 99.917,-234 99.917,-246 99.917,-246 99.917,-252 93.917,-258 87.917,-258"/>
<text text-anchor="middle" x="62" y="-235.8" font-family="Helvetica,sans-Serif" font-size="14.00">dictionary</text>
</g>
<!-- ConstructCorpus&#45;&gt;dictionary -->
<g id="edge8" class="edge">
<title>ConstructCorpus&#45;&gt;dictionary</title>
<path fill="none" stroke="black" d="M127.046,-293.831C116.331,-284.963 103.281,-274.164 91.691,-264.572"/>
<polygon fill="black" stroke="black" points="93.8822,-261.842 83.9467,-258.163 89.4192,-267.235 93.8822,-261.842"/>
</g>
<!-- Corpus -->
<g id="node5" class="node">
<title>Corpus</title>
<path fill="#ffffcc" stroke="black" d="M167.631,-258C167.631,-258 130.369,-258 130.369,-258 124.369,-258 118.369,-252 118.369,-246 118.369,-246 118.369,-234 118.369,-234 118.369,-228 124.369,-222 130.369,-222 130.369,-222 167.631,-222 167.631,-222 173.631,-222 179.631,-228 179.631,-234 179.631,-234 179.631,-246 179.631,-246 179.631,-252 173.631,-258 167.631,-258"/>
<text text-anchor="middle" x="149" y="-235.8" font-family="Helvetica,sans-Serif" font-size="14.00">Corpus</text>
</g>
<!-- ConstructCorpus&#45;&gt;Corpus -->
<g id="edge9" class="edge">
<title>ConstructCorpus&#45;&gt;Corpus</title>
<path fill="none" stroke="black" d="M149,-293.831C149,-286.131 149,-276.974 149,-268.417"/>
<polygon fill="black" stroke="black" points="152.5,-268.413 149,-258.413 145.5,-268.413 152.5,-268.413"/>
</g>
<!-- Train_LDA_Model -->
<g id="node2" class="node">
<title>Train_LDA_Model</title>
<polygon fill="#ccffcc" stroke="black" points="269.021,-186 126.979,-186 126.979,-150 269.021,-150 269.021,-186"/>
<text text-anchor="middle" x="198" y="-163.8" font-family="Courier,monospace" font-size="14.00">Train_LDA_Model</text>
</g>
<!-- LDA_model -->
<g id="node6" class="node">
<title>LDA_model</title>
<path fill="#ffffcc" stroke="black" d="M230.651,-114C230.651,-114 165.349,-114 165.349,-114 159.349,-114 153.349,-108 153.349,-102 153.349,-102 153.349,-90 153.349,-90 153.349,-84 159.349,-78 165.349,-78 165.349,-78 230.651,-78 230.651,-78 236.651,-78 242.651,-84 242.651,-90 242.651,-90 242.651,-102 242.651,-102 242.651,-108 236.651,-114 230.651,-114"/>
<text text-anchor="middle" x="198" y="-91.8" font-family="Helvetica,sans-Serif" font-size="14.00">LDA_model</text>
</g>
<!-- Train_LDA_Model&#45;&gt;LDA_model -->
<g id="edge10" class="edge">
<title>Train_LDA_Model&#45;&gt;LDA_model</title>
<path fill="none" stroke="black" d="M198,-149.831C198,-142.131 198,-132.974 198,-124.417"/>
<polygon fill="black" stroke="black" points="201.5,-124.413 198,-114.413 194.5,-124.413 201.5,-124.413"/>
</g>
<!-- Static_text -->
<g id="node3" class="node">
<title>Static_text</title>
<path fill="#ffffcc" stroke="black" d="M344.866,-402C344.866,-402 287.134,-402 287.134,-402 281.134,-402 275.134,-396 275.134,-390 275.134,-390 275.134,-378 275.134,-378 275.134,-372 281.134,-366 287.134,-366 287.134,-366 344.866,-366 344.866,-366 350.866,-366 356.866,-372 356.866,-378 356.866,-378 356.866,-390 356.866,-390 356.866,-396 350.866,-402 344.866,-402"/>
<text text-anchor="middle" x="316" y="-379.8" font-family="Helvetica,sans-Serif" font-size="14.00">Static_text</text>
</g>
<!-- Static_text&#45;&gt;ConstructCorpus -->
<g id="edge7" class="edge">
<title>Static_text&#45;&gt;ConstructCorpus</title>
<path fill="none" stroke="black" d="M275.147,-366.387C252.557,-356.647 224.274,-344.453 200.216,-334.081"/>
<polygon fill="black" stroke="black" points="201.451,-330.802 190.883,-330.057 198.68,-337.23 201.451,-330.802"/>
</g>
<!-- dictionary&#45;&gt;Train_LDA_Model -->
<g id="edge4" class="edge">
<title>dictionary&#45;&gt;Train_LDA_Model</title>
<path fill="none" stroke="black" d="M96.3185,-221.831C114.036,-212.452 135.834,-200.911 154.698,-190.924"/>
<polygon fill="black" stroke="black" points="156.492,-193.935 163.692,-186.163 153.217,-187.748 156.492,-193.935"/>
</g>
<!-- Corpus&#45;&gt;Train_LDA_Model -->
<g id="edge3" class="edge">
<title>Corpus&#45;&gt;Train_LDA_Model</title>
<path fill="none" stroke="black" d="M161.365,-221.831C166.951,-213.623 173.663,-203.761 179.807,-194.732"/>
<polygon fill="black" stroke="black" points="182.736,-196.65 185.469,-186.413 176.949,-192.711 182.736,-196.65"/>
</g>
<!-- LDA_model_outflow -->
<g id="node16" class="node">
<title>LDA_model_outflow</title>
<ellipse fill="none" stroke="black" cx="198" cy="-31" rx="7" ry="7"/>
</g>
<!-- LDA_model&#45;&gt;LDA_model_outflow -->
<g id="edge16" class="edge">
<title>LDA_model&#45;&gt;LDA_model_outflow</title>
<path fill="none" stroke="black" d="M198,-77.8939C198,-68.5967 198,-57.3301 198,-48.1707"/>
<polygon fill="black" stroke="black" points="201.5,-48.0024 198,-38.0024 194.5,-48.0025 201.5,-48.0024"/>
</g>
<!-- stopwords -->
<g id="node7" class="node">
<title>stopwords</title>
<path fill="#ffffff" stroke="black" d="M244.807,-402C244.807,-402 189.193,-402 189.193,-402 183.193,-402 177.193,-396 177.193,-390 177.193,-390 177.193,-378 177.193,-378 177.193,-372 183.193,-366 189.193,-366 189.193,-366 244.807,-366 244.807,-366 250.807,-366 256.807,-372 256.807,-378 256.807,-378 256.807,-390 256.807,-390 256.807,-396 250.807,-402 244.807,-402"/>
<text text-anchor="middle" x="217" y="-379.8" font-family="Helvetica,sans-Serif" font-size="14.00">stopwords</text>
</g>
<!-- stopwords&#45;&gt;ConstructCorpus -->
<g id="edge6" class="edge">
<title>stopwords&#45;&gt;ConstructCorpus</title>
<path fill="none" stroke="black" d="M199.841,-365.831C191.849,-357.369 182.196,-347.149 173.458,-337.897"/>
<polygon fill="black" stroke="black" points="175.801,-335.28 166.39,-330.413 170.712,-340.087 175.801,-335.28"/>
</g>
<!-- regular_expression -->
<g id="node8" class="node">
<title>regular_expression</title>
<path fill="#ffffff" stroke="black" d="M147.568,-402C147.568,-402 36.4316,-402 36.4316,-402 30.4316,-402 24.4316,-396 24.4316,-390 24.4316,-390 24.4316,-378 24.4316,-378 24.4316,-372 30.4316,-366 36.4316,-366 36.4316,-366 147.568,-366 147.568,-366 153.568,-366 159.568,-372 159.568,-378 159.568,-378 159.568,-390 159.568,-390 159.568,-396 153.568,-402 147.568,-402"/>
<text text-anchor="middle" x="92" y="-379.8" font-family="Helvetica,sans-Serif" font-size="14.00">regular_expression</text>
</g>
<!-- regular_expression&#45;&gt;ConstructCorpus -->
<g id="edge5" class="edge">
<title>regular_expression&#45;&gt;ConstructCorpus</title>
<path fill="none" stroke="black" d="M106.384,-365.831C112.949,-357.539 120.851,-347.557 128.058,-338.453"/>
<polygon fill="black" stroke="black" points="130.96,-340.426 134.423,-330.413 125.472,-336.081 130.96,-340.426"/>
</g>
<!-- num_iteration -->
<g id="node9" class="node">
<title>num_iteration</title>
<path fill="#ffffff" stroke="black" d="M286.327,-258C286.327,-258 209.673,-258 209.673,-258 203.673,-258 197.673,-252 197.673,-246 197.673,-246 197.673,-234 197.673,-234 197.673,-228 203.673,-222 209.673,-222 209.673,-222 286.327,-222 286.327,-222 292.327,-222 298.327,-228 298.327,-234 298.327,-234 298.327,-246 298.327,-246 298.327,-252 292.327,-258 286.327,-258"/>
<text text-anchor="middle" x="248" y="-235.8" font-family="Helvetica,sans-Serif" font-size="14.00">num_iteration</text>
</g>
<!-- num_iteration&#45;&gt;Train_LDA_Model -->
<g id="edge2" class="edge">
<title>num_iteration&#45;&gt;Train_LDA_Model</title>
<path fill="none" stroke="black" d="M235.383,-221.831C229.683,-213.623 222.834,-203.761 216.564,-194.732"/>
<polygon fill="black" stroke="black" points="219.366,-192.631 210.787,-186.413 213.616,-196.623 219.366,-192.631"/>
</g>
<!-- num_topics -->
<g id="node10" class="node">
<title>num_topics</title>
<path fill="#ffffff" stroke="black" d="M391.594,-258C391.594,-258 328.406,-258 328.406,-258 322.406,-258 316.406,-252 316.406,-246 316.406,-246 316.406,-234 316.406,-234 316.406,-228 322.406,-222 328.406,-222 328.406,-222 391.594,-222 391.594,-222 397.594,-222 403.594,-228 403.594,-234 403.594,-234 403.594,-246 403.594,-246 403.594,-252 397.594,-258 391.594,-258"/>
<text text-anchor="middle" x="360" y="-235.8" font-family="Helvetica,sans-Serif" font-size="14.00">num_topics</text>
</g>
<!-- num_topics&#45;&gt;Train_LDA_Model -->
<g id="edge1" class="edge">
<title>num_topics&#45;&gt;Train_LDA_Model</title>
<path fill="none" stroke="black" d="M319.121,-221.831C297.454,-212.202 270.664,-200.295 247.792,-190.13"/>
<polygon fill="black" stroke="black" points="249.145,-186.901 238.585,-186.038 246.302,-193.298 249.145,-186.901"/>
</g>
<!-- Static_text_inflow -->
<g id="node11" class="node">
<title>Static_text_inflow</title>
<ellipse fill="none" stroke="black" cx="316" cy="-449" rx="7" ry="7"/>
</g>
<!-- Static_text_inflow&#45;&gt;Static_text -->
<g id="edge11" class="edge">
<title>Static_text_inflow&#45;&gt;Static_text</title>
<path fill="none" stroke="black" d="M316,-441.796C316,-434.582 316,-423.016 316,-412.12"/>
<polygon fill="black" stroke="black" points="319.5,-412.041 316,-402.041 312.5,-412.041 319.5,-412.041"/>
</g>
<!-- stopwords_inflow -->
<g id="node12" class="node">
<title>stopwords_inflow</title>
<ellipse fill="none" stroke="black" cx="284" cy="-449" rx="7" ry="7"/>
</g>
<!-- stopwords_inflow&#45;&gt;stopwords -->
<g id="edge12" class="edge">
<title>stopwords_inflow&#45;&gt;stopwords</title>
<path fill="none" stroke="black" d="M280.219,-442.602C277.217,-437.783 272.748,-431.15 268,-426 262.478,-420.011 256.096,-414.113 249.754,-408.716"/>
<polygon fill="black" stroke="black" points="251.758,-405.832 241.812,-402.179 247.309,-411.236 251.758,-405.832"/>
</g>
<!-- regular_expression_inflow -->
<g id="node13" class="node">
<title>regular_expression_inflow</title>
<ellipse fill="none" stroke="black" cx="252" cy="-449" rx="7" ry="7"/>
</g>
<!-- regular_expression_inflow&#45;&gt;regular_expression -->
<g id="edge13" class="edge">
<title>regular_expression_inflow&#45;&gt;regular_expression</title>
<path fill="none" stroke="black" d="M244.97,-446.585C230.464,-441.563 196.213,-429.502 168,-418 159.059,-414.355 149.61,-410.297 140.526,-406.291"/>
<polygon fill="black" stroke="black" points="141.788,-403.021 131.229,-402.153 138.942,-409.417 141.788,-403.021"/>
</g>
<!-- num_iteration_inflow -->
<g id="node14" class="node">
<title>num_iteration_inflow</title>
<ellipse fill="none" stroke="black" cx="348" cy="-449" rx="7" ry="7"/>
</g>
<!-- num_iteration_inflow&#45;&gt;num_iteration -->
<g id="edge14" class="edge">
<title>num_iteration_inflow&#45;&gt;num_iteration</title>
<path fill="none" stroke="black" d="M352.603,-443.248C357.027,-437.321 363.411,-427.615 366,-418 372.009,-395.684 374.493,-387.494 366,-366 349.209,-323.508 310.57,-286.941 282.059,-264.311"/>
<polygon fill="black" stroke="black" points="283.991,-261.381 273.942,-258.025 279.705,-266.915 283.991,-261.381"/>
</g>
<!-- num_topics_inflow -->
<g id="node15" class="node">
<title>num_topics_inflow</title>
<ellipse fill="none" stroke="black" cx="380" cy="-449" rx="7" ry="7"/>
</g>
<!-- num_topics_inflow&#45;&gt;num_topics -->
<g id="edge15" class="edge">
<title>num_topics_inflow&#45;&gt;num_topics</title>
<path fill="none" stroke="black" d="M384.855,-443.292C389.522,-437.4 396.258,-427.721 399,-418 413.961,-364.959 415.956,-346.438 399,-294 395.831,-284.2 390.147,-274.683 384.081,-266.438"/>
<polygon fill="black" stroke="black" points="386.647,-264.04 377.711,-258.348 381.147,-268.37 386.647,-264.04"/>
</g>
</g>
</svg>
